<svg width="31" height="38" viewBox="0 0 31 38" fill="none" xmlns="http://www.w3.org/2000/svg">
<path d="M11.5122 15.0163C8.21371 15.0163 5.28781 15.7615 3.36525 16.4097C1.9461 16.8898 1 18.2272 1 19.7257V24.3605C1 24.3605 10.2951 24.3605 10.3442 24.3605" stroke="#072A3D" stroke-width="2" stroke-miterlimit="10" stroke-linecap="round"/>
<path d="M11.512 15.0163C8.28708 15.0163 5.67188 11.2331 5.67188 8.00814V6.84012C5.67188 3.6152 8.28708 1 11.512 1C14.7369 1 17.3521 3.6152 17.3521 6.84012V8.00814C17.3521 11.2331 14.7369 15.0163 11.512 15.0163Z" stroke="#072A3D" stroke-width="2" stroke-miterlimit="10" stroke-linecap="round"/>
<g filter="url(#filter0_dd)">
<path d="M24.7827 30.0164C24.6257 30.0164 24.4772 29.9424 24.3827 29.8164L22.8827 27.8164C22.8177 27.7299 22.7827 27.6244 22.7827 27.5164V20.5164H26.7827V27.5164C26.7827 27.6244 26.7477 27.7299 26.6827 27.8164L25.1827 29.8164C25.0882 29.9424 24.9397 30.0164 24.7827 30.0164Z" fill="#2FA2FA"/>
</g>
<g filter="url(#filter1_dd)">
<path d="M26.2827 18.0164H23.2827C23.0067 18.0164 22.7827 18.2404 22.7827 18.5164V19.5164H26.7827V18.5164C26.7827 18.2404 26.5587 18.0164 26.2827 18.0164Z" fill="#2FA2FA"/>
</g>
<g filter="url(#filter2_dd)">
<path d="M20.2827 18.0164H16.2827C15.9827 18.0164 15.7827 18.2164 15.7827 18.5164V20.5164H17.7827V21.5164H15.7827V22.5164H17.2827V23.5164H15.7827V24.5164H17.7827V25.5164H15.7827V26.5164H17.2827V27.5164H15.7827V29.5164C15.7827 29.8164 15.9827 30.0164 16.2827 30.0164H20.2827C20.5827 30.0164 20.7827 29.8164 20.7827 29.5164V18.5164C20.7827 18.2164 20.5827 18.0164 20.2827 18.0164Z" fill="#2FA2FA"/>
</g>
<defs>
<filter id="filter0_dd" x="18.7827" y="19.5164" width="12" height="17.5" filterUnits="userSpaceOnUse" color-interpolation-filters="sRGB">
<feFlood flood-opacity="0" result="BackgroundImageFix"/>
<feColorMatrix in="SourceAlpha" type="matrix" values="0 0 0 0 0 0 0 0 0 0 0 0 0 0 0 0 0 0 127 0"/>
<feOffset dy="3"/>
<feGaussianBlur stdDeviation="2"/>
<feColorMatrix type="matrix" values="0 0 0 0 0.184314 0 0 0 0 0.635294 0 0 0 0 0.980392 0 0 0 0.24 0"/>
<feBlend mode="normal" in2="BackgroundImageFix" result="effect1_dropShadow"/>
<feColorMatrix in="SourceAlpha" type="matrix" values="0 0 0 0 0 0 0 0 0 0 0 0 0 0 0 0 0 0 127 0"/>
<feOffset dy="1"/>
<feGaussianBlur stdDeviation="0.5"/>
<feColorMatrix type="matrix" values="0 0 0 0 0.184314 0 0 0 0 0.635294 0 0 0 0 0.980392 0 0 0 0.32 0"/>
<feBlend mode="normal" in2="effect1_dropShadow" result="effect2_dropShadow"/>
<feBlend mode="normal" in="SourceGraphic" in2="effect2_dropShadow" result="shape"/>
</filter>
<filter id="filter1_dd" x="18.7827" y="17.0164" width="12" height="9.5" filterUnits="userSpaceOnUse" color-interpolation-filters="sRGB">
<feFlood flood-opacity="0" result="BackgroundImageFix"/>
<feColorMatrix in="SourceAlpha" type="matrix" values="0 0 0 0 0 0 0 0 0 0 0 0 0 0 0 0 0 0 127 0"/>
<feOffset dy="3"/>
<feGaussianBlur stdDeviation="2"/>
<feColorMatrix type="matrix" values="0 0 0 0 0.184314 0 0 0 0 0.635294 0 0 0 0 0.980392 0 0 0 0.24 0"/>
<feBlend mode="normal" in2="BackgroundImageFix" result="effect1_dropShadow"/>
<feColorMatrix in="SourceAlpha" type="matrix" values="0 0 0 0 0 0 0 0 0 0 0 0 0 0 0 0 0 0 127 0"/>
<feOffset dy="1"/>
<feGaussianBlur stdDeviation="0.5"/>
<feColorMatrix type="matrix" values="0 0 0 0 0.184314 0 0 0 0 0.635294 0 0 0 0 0.980392 0 0 0 0.32 0"/>
<feBlend mode="normal" in2="effect1_dropShadow" result="effect2_dropShadow"/>
<feBlend mode="normal" in="SourceGraphic" in2="effect2_dropShadow" result="shape"/>
</filter>
<filter id="filter2_dd" x="11.7827" y="17.0164" width="13" height="20" filterUnits="userSpaceOnUse" color-interpolation-filters="sRGB">
<feFlood flood-opacity="0" result="BackgroundImageFix"/>
<feColorMatrix in="SourceAlpha" type="matrix" values="0 0 0 0 0 0 0 0 0 0 0 0 0 0 0 0 0 0 127 0"/>
<feOffset dy="3"/>
<feGaussianBlur stdDeviation="2"/>
<feColorMatrix type="matrix" values="0 0 0 0 0.184314 0 0 0 0 0.635294 0 0 0 0 0.980392 0 0 0 0.24 0"/>
<feBlend mode="normal" in2="BackgroundImageFix" result="effect1_dropShadow"/>
<feColorMatrix in="SourceAlpha" type="matrix" values="0 0 0 0 0 0 0 0 0 0 0 0 0 0 0 0 0 0 127 0"/>
<feOffset dy="1"/>
<feGaussianBlur stdDeviation="0.5"/>
<feColorMatrix type="matrix" values="0 0 0 0 0.184314 0 0 0 0 0.635294 0 0 0 0 0.980392 0 0 0 0.32 0"/>
<feBlend mode="normal" in2="effect1_dropShadow" result="effect2_dropShadow"/>
<feBlend mode="normal" in="SourceGraphic" in2="effect2_dropShadow" result="shape"/>
</filter>
</defs>
</svg>
