<svg width="32" height="32" viewBox="0 0 32 32" fill="none" xmlns="http://www.w3.org/2000/svg">
<rect width="32" height="32" rx="12" fill="white"/>
<g clip-path="url(#clip0)">
<path d="M23.9732 13.6204C23.9426 13.521 23.8861 13.4326 23.8101 13.3652C23.7341 13.2978 23.6416 13.2541 23.5432 13.2389L18.6613 12.4944L16.4783 7.85178C16.4292 7.76442 16.3592 7.69201 16.2753 7.64171C16.1914 7.5914 16.0964 7.56494 15.9998 7.56494C15.9031 7.56494 15.8082 7.5914 15.7243 7.64171C15.6403 7.69201 15.5704 7.76442 15.5213 7.85178L13.3383 12.4933L8.45639 13.2389C8.35789 13.254 8.26537 13.2976 8.18928 13.365C8.1132 13.4323 8.05658 13.5207 8.02584 13.62C7.9951 13.7194 7.99145 13.8258 8.01532 13.9272C8.03919 14.0286 8.08961 14.121 8.1609 14.1939L11.6938 17.807L10.8604 22.9108C10.8435 23.0137 10.8544 23.1195 10.8919 23.2162C10.9294 23.313 10.9919 23.3967 11.0724 23.4581C11.1528 23.5195 11.2481 23.556 11.3473 23.5635C11.4466 23.571 11.5458 23.5492 11.6339 23.5006L15.9998 21.0906L20.3662 23.4995C20.4542 23.5481 20.5533 23.5698 20.6525 23.5623C20.7516 23.5549 20.8467 23.5185 20.9272 23.4572C21.0076 23.396 21.0702 23.3124 21.1077 23.2158C21.1453 23.1193 21.1564 23.0136 21.1397 22.9108L20.3062 17.8081L23.8392 14.1949C23.9105 14.1219 23.9608 14.0293 23.9845 13.9278C24.0082 13.8262 24.0042 13.7197 23.9732 13.6204Z" fill="#FBCF34"/>
</g>
<defs>
<clipPath id="clip0">
<rect x="8" y="7" width="16" height="18" fill="white"/>
</clipPath>
</defs>
</svg>
