<svg width="56" height="22" viewBox="0 0 56 22" fill="none" xmlns="http://www.w3.org/2000/svg">
<path d="M19.165 4.47066C21.1537 10.5269 21.9071 21.3307 27.7221 21.3307C28.1649 21.3307 28.6122 21.2876 29.0612 21.2025C23.775 19.975 23.1485 9.28877 19.9229 3.75476C19.6699 3.98367 19.4188 4.22228 19.165 4.47066Z" fill="url(#paint0_linear)"/>
<path d="M19.9224 3.75476C23.148 9.28876 23.7745 19.975 29.0607 21.2025C29.476 21.1265 29.8922 21.0116 30.3092 20.8667C25.5644 18.5513 24.2528 8.17438 20.5897 3.17856C20.3678 3.36244 20.1451 3.5551 19.9224 3.75476Z" fill="url(#paint1_linear)"/>
<path d="M24.5698 0.463593C24.1279 0.463593 23.6797 0.506711 23.2299 0.591774C22.0532 0.812703 20.8579 1.31729 19.6528 2.08084C19.982 2.40429 20.2952 2.77455 20.5899 3.17845C21.8154 2.16568 23.0329 1.41718 24.246 0.967319C24.7012 0.799416 25.1546 0.673073 25.6098 0.590006C25.2815 0.506851 24.9354 0.463593 24.5698 0.463593Z" fill="#14559A"/>
<path d="M34.013 18.7324C34.4983 18.348 34.9846 17.9229 35.4718 17.459C33.4512 11.4309 32.728 0.472504 26.8721 0.472504C26.4533 0.472504 26.0309 0.511385 25.6094 0.589148C30.9435 1.91038 31.6268 13.468 34.013 18.7324Z" fill="url(#paint2_linear)"/>
<path d="M25.6098 0.590172C25.2815 0.506737 24.9354 0.463287 24.5698 0.463287L26.8726 0.471728C26.4537 0.471728 26.0314 0.510781 25.6098 0.58982" fill="#3092C4"/>
<path d="M33.9114 20.013C33.6825 19.7956 33.4651 19.557 33.2512 19.3025C32.2662 19.9971 31.2848 20.5238 30.3096 20.8667C30.6565 21.0355 31.0203 21.161 31.4064 21.2388C31.7054 21.2996 32.0151 21.3307 32.3408 21.3307C33.4349 21.3307 34.3001 21.2017 35.0366 20.85C34.6311 20.6316 34.2593 20.3488 33.9114 20.013Z" fill="#1969BC"/>
<path d="M24.2461 0.968341C29.0238 3.45695 29.4391 14.7265 33.2513 19.3025C33.5069 19.1231 33.7598 18.9331 34.0127 18.7324C31.6265 13.468 30.9441 1.90948 25.6109 0.589172C25.1557 0.674008 24.7013 0.799581 24.2461 0.968341Z" fill="url(#paint3_linear)"/>
<path d="M20.5898 3.17856C24.253 8.17439 25.5645 18.5513 30.3094 20.8667C31.2846 20.5238 32.2661 19.9971 33.2511 19.3025C29.4389 14.7265 29.0236 3.45696 24.2459 0.968353C23.0328 1.41728 21.8153 2.16578 20.5898 3.17856Z" fill="url(#paint4_linear)"/>
<path d="M16.8209 4.32479C16.2468 5.61775 15.6602 7.31714 14.9512 9.53535C16.3612 7.55661 17.7669 5.8519 19.1645 4.47065C18.9719 3.88116 18.7652 3.33768 18.5424 2.85333C17.971 3.28905 17.395 3.77956 16.8209 4.32479Z" fill="url(#paint5_linear)"/>
<path d="M19.0516 2.48053C18.8829 2.60071 18.7134 2.72359 18.543 2.85347C18.7657 3.33776 18.9717 3.8813 19.1643 4.47072C19.4181 4.22326 19.6702 3.9838 19.9223 3.75488C19.6516 3.29179 19.364 2.86406 19.0516 2.48053Z" fill="#2B74B1"/>
<path d="M19.6536 2.08087C19.453 2.20728 19.2533 2.34068 19.0518 2.48031C19.3642 2.86386 19.6518 3.29159 19.9234 3.75559C20.1463 3.55495 20.369 3.36144 20.591 3.17848C20.2962 2.77465 19.9829 2.40432 19.6536 2.08087Z" fill="#125A9E"/>
<path d="M52.2416 0.00243338C49.5395 10.3802 43.8957 18.7157 39.1641 20.8172H39.1552C39.0691 20.8561 38.9839 20.8915 38.8996 20.9259C38.888 20.9329 38.8774 20.9338 38.8685 20.938C38.8436 20.9479 38.8206 20.9556 38.7957 20.9655C38.7841 20.9725 38.7736 20.9748 38.7629 20.979C38.723 20.9932 38.684 21.0052 38.6449 21.0207C38.628 21.0277 38.6121 21.0321 38.5961 21.0377C38.5783 21.0447 38.5579 21.0512 38.5375 21.0568C38.5198 21.0638 38.5012 21.0689 38.4807 21.0766C38.4638 21.0836 38.4461 21.0866 38.4302 21.0936C38.3955 21.1035 38.3636 21.1119 38.329 21.124C38.3148 21.124 38.3015 21.1317 38.2864 21.1353C38.2651 21.1423 38.2411 21.1474 38.218 21.1537C38.202 21.1607 38.1888 21.163 38.1719 21.1665C38.1479 21.1735 38.1213 21.18 38.0973 21.1856C38.0654 21.1926 38.037 21.1991 38.0068 21.2054C38.2207 21.2841 38.4434 21.3238 38.6839 21.3238C43.1706 21.3238 47.6944 13.3163 55.1795 0H52.2405L52.2416 0.00243338Z" fill="url(#paint6_linear)"/>
<path d="M13.9769 0.884776C13.9798 0.884776 13.9833 0.877774 13.985 0.877774C13.9885 0.877774 13.994 0.877774 13.9958 0.870771H14.0014C14.0262 0.862368 14.0493 0.85239 14.0741 0.843199C14.0805 0.843199 14.0838 0.843199 14.0884 0.836196C14.0947 0.836196 14.1009 0.829194 14.107 0.828318C14.1337 0.819915 14.1603 0.809937 14.1851 0.800746H14.1894C14.2488 0.783082 14.3038 0.761164 14.3615 0.740664C14.3696 0.740664 14.3775 0.733662 14.3872 0.733662C14.4112 0.725959 14.4361 0.717381 14.4609 0.711744C14.4725 0.704741 14.4839 0.704741 14.4946 0.701065C14.5203 0.693362 14.5452 0.684784 14.5691 0.679147C14.5798 0.679147 14.5896 0.672145 14.5975 0.671444C14.68 0.648826 14.7617 0.627609 14.8442 0.607809C14.8558 0.607809 14.8655 0.600806 14.8779 0.600106C14.9019 0.593104 14.9241 0.589427 14.9498 0.585926C14.9605 0.578924 14.9729 0.578924 14.9853 0.575247C15.0092 0.568245 15.0323 0.567544 15.0581 0.561767H15.0749C15.1246 0.551789 15.1752 0.543386 15.2249 0.534195H15.2551C15.279 0.527192 15.3003 0.526492 15.3243 0.522116C15.3375 0.522116 15.3509 0.515113 15.3634 0.515113C15.3855 0.515113 15.4077 0.508111 15.4299 0.505135C15.4415 0.505135 15.4529 0.505135 15.4663 0.498132C15.5186 0.49113 15.5728 0.488328 15.6278 0.483952C15.4725 0.469072 15.3128 0.459198 15.1504 0.459198C10.0976 0.459198 3.13603 9.79592 0 21.8873H0.604312C1.60795 20.1048 2.50953 18.4186 3.33392 16.8358C5.53021 8.27149 10.0035 2.43079 13.9773 0.883393" fill="url(#paint7_linear)"/>
<path d="M16.8213 4.32478C17.3956 3.77955 17.9717 3.28904 18.5433 2.8534C18.4129 2.56883 18.278 2.30547 18.1332 2.06418C17.6708 2.6227 17.2483 3.35975 16.8213 4.32478Z" fill="#0D82CA"/>
<path d="M17.2363 0.955549C17.5665 1.23127 17.862 1.61042 18.1328 2.06468C18.218 1.96039 18.3042 1.86404 18.3938 1.7739C18.0183 1.42484 17.6126 1.13851 17.1724 0.922882C17.1901 0.932686 17.2079 0.940563 17.2263 0.948336C17.2263 0.948336 17.2334 0.955339 17.2364 0.955339" fill="#0D82CA"/>
<path d="M3.3335 16.8368C7.94082 7.99494 10.1238 2.39907 13.9768 0.884338C10.004 2.43272 5.52978 8.27334 3.3335 16.8368Z" fill="url(#paint8_linear)"/>
<path d="M18.3928 1.77368C18.3032 1.86475 18.218 1.96019 18.1318 2.06448C18.2766 2.3057 18.4114 2.56821 18.5429 2.85363C18.7133 2.72375 18.8828 2.60087 19.0514 2.48069C18.8429 2.2244 18.6227 1.9867 18.3928 1.77368Z" fill="#127BCA"/>
<path d="M5.42534 21.8486C5.39695 21.8556 5.36855 21.8556 5.34193 21.8586H5.32595C5.30195 21.8586 5.27711 21.8656 5.25496 21.8656H5.24339C5.18575 21.8726 5.12892 21.8726 5.0739 21.8769H5.05615C9.71938 21.747 11.8509 19.4218 12.9086 16.0495C13.7126 13.4928 14.3729 11.3391 14.9514 9.53189C12.9983 12.2697 11.0363 15.5334 9.0636 19.1894C8.11232 20.9516 6.66588 21.6877 5.42531 21.8451" fill="url(#paint9_linear)"/>
<path d="M5.42529 21.8469C6.66586 21.6895 8.11231 20.9542 9.06359 19.1912C11.0362 15.536 12.9991 12.2715 14.9505 9.53362C15.6604 7.3145 16.2461 5.61602 16.8211 4.32306C12.9317 8.01004 9.0272 14.1406 5.42529 21.8451" fill="url(#paint10_linear)"/>
<path d="M3.33361 16.837C2.50926 18.4199 1.60768 20.106 0.604004 21.8885H2.36196C2.59445 20.1183 2.92456 18.4304 3.33361 16.8379" fill="#05A1E6"/>
<path d="M15.4663 0.502667C15.4521 0.502667 15.4415 0.50967 15.429 0.50967C15.4077 0.516672 15.3855 0.516672 15.3634 0.518948C15.3502 0.518948 15.3377 0.518948 15.3243 0.525951C15.3003 0.532953 15.2782 0.533653 15.2551 0.53803C15.2444 0.53803 15.2338 0.53803 15.2249 0.545033C15.1743 0.553436 15.1247 0.562714 15.075 0.571187H15.0581C15.0324 0.57819 15.0093 0.581866 14.9853 0.585367C14.9728 0.59237 14.9605 0.59237 14.9489 0.595171C14.925 0.602173 14.901 0.605149 14.8779 0.609351C14.8654 0.616353 14.8558 0.616353 14.8442 0.617054C14.7617 0.636853 14.68 0.658071 14.5975 0.680689C14.5887 0.680689 14.5798 0.687691 14.5691 0.689092C14.5443 0.696094 14.5203 0.703272 14.4946 0.71101C14.4838 0.718012 14.4715 0.718012 14.4608 0.720813C14.436 0.727816 14.4111 0.734994 14.3872 0.742731C14.3775 0.742731 14.3694 0.749734 14.3606 0.749734C14.3038 0.770934 14.2479 0.792152 14.1893 0.809833C14.1645 0.817536 14.1378 0.827497 14.1112 0.836688C14.1005 0.84369 14.0908 0.845266 14.0784 0.850167C14.0536 0.85787 14.0287 0.867849 14.0056 0.87704C13.9969 0.884042 13.9879 0.884742 13.9817 0.888419C10.1287 2.40315 7.94571 7.99902 3.33839 16.8409C2.9293 18.4334 2.59831 20.1214 2.3667 21.8915H2.61339C3.30822 21.8915 3.50433 21.8845 4.30387 21.8845H4.34469H4.4636H4.50442H4.51598H4.5568H4.57987H4.59585H4.6278H4.72719H4.82658H4.90999H4.93214H5.07856C5.13357 21.8775 5.19037 21.8775 5.24805 21.8731H5.2587C5.2827 21.8731 5.30662 21.8661 5.32969 21.8661H5.34652C5.37221 21.8661 5.40153 21.8591 5.42993 21.8561C9.03184 14.1517 12.9363 8.02108 16.8258 4.3341C17.2535 3.36906 17.675 2.63201 18.1365 2.0744C17.8667 1.62016 17.5712 1.24016 17.2411 0.964361C17.2411 0.964361 17.2321 0.964361 17.2314 0.957359C17.2127 0.949656 17.1951 0.940378 17.1764 0.931204C17.1577 0.921226 17.1418 0.913523 17.1223 0.903632C17.1054 0.896629 17.0859 0.887351 17.069 0.878178C17.046 0.871175 17.0273 0.861196 17.0069 0.852006C16.9901 0.845003 16.975 0.837826 16.9581 0.830806C16.9234 0.817326 16.8889 0.803233 16.8561 0.788388C16.8409 0.781385 16.8268 0.777709 16.8125 0.772107C16.7886 0.763529 16.7611 0.752307 16.7362 0.741698C16.7237 0.734696 16.7096 0.733295 16.6954 0.728219C16.659 0.716139 16.6235 0.703482 16.5898 0.692156H16.581C16.5402 0.678676 16.5002 0.668837 16.4585 0.657511C16.4489 0.650508 16.4408 0.650508 16.4311 0.649108C16.3946 0.639129 16.3627 0.629308 16.3281 0.620117C16.3193 0.620117 16.3112 0.613115 16.3042 0.613115C16.2208 0.591197 16.1347 0.573533 16.0477 0.557269C16.0388 0.557269 16.03 0.550267 16.0211 0.550267C15.9839 0.543264 15.9475 0.536787 15.9102 0.532586C15.9012 0.525583 15.896 0.525583 15.8881 0.525583C15.8437 0.518581 15.8002 0.513504 15.7567 0.508602H15.7336C15.6982 0.501599 15.6654 0.500899 15.6325 0.497223C15.5765 0.504225 15.5233 0.507201 15.471 0.512103" fill="url(#paint11_linear)"/>
<path d="M41.6861 5.7476C40.7996 8.57559 40.0817 10.9087 39.457 12.8282C41.8894 9.49468 44.2853 5.30128 46.5668 0.461975C43.9055 1.29438 42.4857 3.1998 41.6861 5.7476Z" fill="url(#paint12_linear)"/>
<path d="M39.535 20.6404C39.4108 20.7034 39.2865 20.7633 39.1641 20.8172C43.8956 18.7157 49.5394 10.3802 52.2415 0.00241089H51.694C45.4858 11.0465 43.4892 18.4399 39.535 20.6404Z" fill="url(#paint13_linear)"/>
<path d="M36.445 19.7126C37.4744 18.4612 38.3129 16.3341 39.4577 12.8282C38.1372 14.6346 36.808 16.1874 35.4777 17.4538C35.4777 17.4608 35.4777 17.4608 35.4707 17.4651C35.7609 18.3312 36.0794 19.0956 36.4424 19.7125" fill="#079AE1"/>
<path d="M36.4453 19.7126C36.0948 20.1386 35.7239 20.4629 35.3112 20.7033C35.2207 20.7556 35.1294 20.8049 35.0361 20.85C35.4719 21.0842 35.9475 21.2406 36.4799 21.3033C36.5579 21.311 36.6351 21.3182 36.7159 21.3238H36.7302C36.7664 21.3238 36.8047 21.3238 36.8438 21.3308H36.8594H36.9757H37.1009H37.1399H37.2286C37.2429 21.3308 37.2577 21.3308 37.2719 21.3238C37.2996 21.3238 37.3287 21.3238 37.3571 21.3168H37.3671H37.3991C37.4282 21.3168 37.4601 21.3098 37.4914 21.3068H37.4984C37.5077 21.3068 37.5176 21.2998 37.5268 21.2998C37.5595 21.2928 37.5935 21.2899 37.6253 21.285H37.6545C37.6906 21.278 37.7281 21.2736 37.7653 21.2666H37.7724H37.7831C37.8576 21.2524 37.9304 21.2383 38.004 21.2199C37.3935 20.9972 36.8824 20.4723 36.4422 19.7246" fill="#1969BC"/>
<path d="M27.7217 21.3309C28.1645 21.3309 28.6118 21.2878 29.0608 21.2019C29.4761 21.1268 29.8922 21.0118 30.3093 20.8669C30.6563 21.0357 31.0201 21.1612 31.4053 21.239C31.7043 21.2998 32.0149 21.3309 32.3406 21.3309H27.7217Z" fill="#1E5CB3"/>
<path d="M32.341 21.3309C33.4343 21.3309 34.3004 21.2018 35.036 20.8501C35.4717 21.0843 35.9474 21.2407 36.4798 21.3035C36.5579 21.3112 36.6351 21.3184 36.7159 21.324H36.7301C36.7663 21.324 36.8046 21.324 36.8437 21.331H36.86H36.9763H32.3379L32.341 21.3309Z" fill="#1E5CB3"/>
<path d="M36.9785 21.3314H37.1046H37.1436H37.2315C37.2465 21.3314 37.2606 21.3314 37.2749 21.3243C37.3025 21.3243 37.3317 21.3243 37.361 21.3173H37.3703H37.403C37.4321 21.3173 37.4641 21.3103 37.4944 21.3074H37.5022C37.5115 21.3074 37.5206 21.3004 37.5299 21.3004C37.5625 21.2934 37.5966 21.2906 37.6284 21.2855C37.6391 21.2855 37.6475 21.2855 37.6589 21.2784C37.6951 21.2714 37.7326 21.2677 37.7699 21.2607H37.7769H37.7877C37.8622 21.2464 37.935 21.2323 38.0087 21.2138C38.2225 21.2928 38.4454 21.3328 38.6859 21.3328L36.9798 21.3398L36.9785 21.3314Z" fill="#1D60B5"/>
<path d="M35.4735 17.4653V17.4583C34.9864 17.9222 34.5001 18.3473 34.0147 18.7317C33.7609 18.9324 33.508 19.1223 33.2524 19.3018C33.4663 19.5563 33.6837 19.7949 33.9127 20.0123C34.2605 20.3481 34.6323 20.6309 35.0379 20.8492C35.1301 20.8039 35.2224 20.7546 35.312 20.7025C35.7255 20.4621 36.0965 20.1378 36.447 19.7118C36.0841 19.095 35.7655 18.3305 35.4753 17.4644" fill="#175FAB"/>
<path d="M49.9599 0.00241089H47.6581H47.4291H47.2126H47.2041C47.0551 0.00941341 46.9105 0.0144902 46.7675 0.0236285C46.7001 0.167723 46.6309 0.3118 46.5643 0.456734C44.2829 5.29604 41.8869 9.48944 39.4546 12.8229C38.3107 16.3287 37.4713 18.4559 36.4419 19.7073C36.882 20.4549 37.3941 20.9807 38.0028 21.2034C38.0206 21.1964 38.0348 21.1964 38.0507 21.1928H38.0606C38.0713 21.1928 38.0827 21.1858 38.0943 21.1858C38.1191 21.1788 38.1458 21.1744 38.1706 21.1667C38.1866 21.1597 38.1999 21.159 38.2159 21.1539C38.239 21.1469 38.2629 21.1418 38.2842 21.1362C38.2985 21.1292 38.3126 21.1269 38.3268 21.1241C38.3623 21.1128 38.3942 21.1043 38.428 21.0937C38.444 21.0867 38.4608 21.0809 38.4786 21.0767C38.4981 21.0697 38.5176 21.0647 38.5354 21.0562C38.5558 21.0492 38.5762 21.0456 38.5939 21.0379C38.6099 21.0309 38.6267 21.0265 38.6419 21.0202C38.6817 21.006 38.7208 20.994 38.7608 20.9785C38.7715 20.9785 38.7821 20.9687 38.7936 20.9664C38.8176 20.9564 38.8424 20.9487 38.8664 20.9381C38.8752 20.9311 38.8859 20.9304 38.8974 20.9267C38.9808 20.8921 39.0669 20.8567 39.153 20.8181H39.162C39.2844 20.7643 39.4087 20.704 39.532 20.6413C43.4871 18.4408 45.4837 11.0474 51.6919 0.0032687H49.958L49.9599 0.00241089Z" fill="url(#paint14_linear)"/>
<path d="M15.6279 0.487727C15.6378 0.487727 15.6466 0.487727 15.6563 0.49473C15.6802 0.49473 15.7042 0.49473 15.7282 0.502433H15.7522C15.7956 0.509435 15.8392 0.513111 15.8835 0.519414C15.8916 0.519414 15.8986 0.519414 15.9057 0.526416C15.942 0.533419 15.9793 0.539196 16.0166 0.544798C16.0247 0.544798 16.0353 0.5518 16.0441 0.5518C16.1293 0.568781 16.2163 0.586445 16.2997 0.608363C16.3076 0.608363 16.3157 0.615366 16.3228 0.615366C16.3583 0.623769 16.3902 0.634448 16.4257 0.644339C16.4364 0.644339 16.4443 0.651341 16.4541 0.652917C16.4959 0.663596 16.5349 0.674134 16.5757 0.687562C16.5775 0.687562 16.5799 0.687562 16.5847 0.694564C16.6192 0.705068 16.6547 0.7186 16.6911 0.73061C16.7054 0.737612 16.7186 0.740588 16.7319 0.74409C16.7568 0.754768 16.7843 0.76529 16.8083 0.775198C16.8225 0.775198 16.8367 0.785002 16.8517 0.790079C16.8845 0.804959 16.9192 0.818351 16.9529 0.832496C16.9706 0.839499 16.9857 0.847377 17.0026 0.853696C17.0221 0.863675 17.0425 0.872796 17.0638 0.879868C17.0815 0.888271 17.101 0.897532 17.1179 0.905305C17.1365 0.915284 17.1542 0.922986 17.172 0.932877C17.6122 1.14852 18.0177 1.43576 18.3931 1.78396C18.5315 1.63903 18.6761 1.50908 18.8261 1.39244C18.0053 0.812697 17.0753 0.482178 16.0025 0.482178C15.8782 0.482178 15.754 0.48918 15.628 0.498459" fill="#7DCBEC"/>
<path d="M18.3931 1.77367C18.623 1.98662 18.8431 2.22439 19.0517 2.48068C19.2532 2.34105 19.4529 2.20671 19.6535 2.08122C19.3908 1.81962 19.1138 1.58455 18.8253 1.38214C18.6753 1.49795 18.5315 1.62873 18.3931 1.77367Z" fill="#5EC5ED"/>
<path d="M15.6273 0.487579C15.7533 0.476974 15.8776 0.472555 16.0018 0.472555C17.0746 0.472555 18.0046 0.803075 18.8255 1.38193C19.6916 0.701445 20.7387 0.463718 22.1931 0.463718H15.1499C15.3123 0.463718 15.4711 0.473439 15.6273 0.487579Z" fill="url(#paint15_linear)"/>
<path d="M22.1928 0.463712C20.7384 0.463712 19.6913 0.701439 18.8252 1.38192C19.1127 1.5843 19.3896 1.81938 19.6522 2.08096C20.8582 1.31741 22.0526 0.811907 23.2302 0.590971C23.6792 0.507016 24.1273 0.463712 24.5693 0.463712H22.1928Z" fill="url(#paint16_linear)"/>
<path d="M39.4576 12.8301C40.0832 10.9088 40.7993 8.57667 41.6876 5.74775C42.488 3.19905 43.9052 1.29369 46.5664 0.462128C46.6367 0.319802 46.7031 0.173099 46.7715 0.0290222C42.433 0.287993 40.4053 2.48582 39.3848 5.7407C37.6003 11.4232 36.5194 15.1066 35.4785 17.4538C36.8078 16.1883 38.1371 14.6347 39.4576 12.8301Z" fill="url(#paint17_linear)"/>
<path d="M45.8226 19.8171H45.3309V21.3389H45.1302V19.8171H44.6367V19.636H45.8226V19.8171Z" fill="black"/>
<path d="M47.8359 21.3386H47.6362V20.1951C47.6362 20.1049 47.6432 19.9945 47.6525 19.8646C47.6319 19.9423 47.6149 19.9963 47.5993 20.0307L47.017 21.3386H46.9193L46.3352 20.0405C46.3182 20.0044 46.3012 19.9459 46.2827 19.8646H46.2757C46.2827 19.9331 46.285 20.044 46.285 20.1978V21.3386H46.0933V19.6357H46.3578L46.8824 20.8243C46.9221 20.9136 46.947 20.9825 46.9596 21.0285H46.9673C47.0021 20.9348 47.0305 20.865 47.0499 20.819L47.5852 19.6357H47.8373V21.3386H47.8359Z" fill="black"/>
<defs>
<linearGradient id="paint0_linear" x1="24.1128" y1="0.324628" x2="24.1128" y2="26.5376" gradientUnits="userSpaceOnUse">
<stop stop-color="#0994DC"/>
<stop offset="0.350006" stop-color="#66CEF5"/>
<stop offset="0.846161" stop-color="#127BCA"/>
<stop offset="1" stop-color="#127BCA"/>
</linearGradient>
<linearGradient id="paint1_linear" x1="25.1159" y1="-0.339035" x2="25.1159" y2="26.542" gradientUnits="userSpaceOnUse">
<stop stop-color="#0E76BC"/>
<stop offset="0.360001" stop-color="#36AEE8"/>
<stop offset="0.846161" stop-color="#00ADEF"/>
<stop offset="1" stop-color="#00ADEF"/>
</linearGradient>
<linearGradient id="paint2_linear" x1="30.5405" y1="20.7267" x2="30.5405" y2="-0.662158" gradientUnits="userSpaceOnUse">
<stop stop-color="#1C63B7"/>
<stop offset="0.5" stop-color="#33BDF2"/>
<stop offset="1" stop-color="#33BDF2" stop-opacity="0.419608"/>
</linearGradient>
<linearGradient id="paint3_linear" x1="29.1295" y1="-3.06273" x2="29.1295" y2="24.8467" gradientUnits="userSpaceOnUse">
<stop stop-color="#166AB8"/>
<stop offset="0.399994" stop-color="#36AEE8"/>
<stop offset="0.846161" stop-color="#0798DD"/>
<stop offset="1" stop-color="#0798DD"/>
</linearGradient>
<linearGradient id="paint4_linear" x1="26.9203" y1="-2.91603" x2="26.9203" y2="26.762" gradientUnits="userSpaceOnUse">
<stop stop-color="#124379"/>
<stop offset="0.389999" stop-color="#1487CB"/>
<stop offset="0.780228" stop-color="#165197"/>
<stop offset="1" stop-color="#165197"/>
</linearGradient>
<linearGradient id="paint5_linear" x1="14.9512" y1="6.19438" x2="19.1645" y2="6.19438" gradientUnits="userSpaceOnUse">
<stop stop-color="#33BDF2" stop-opacity="0.698039"/>
<stop offset="1" stop-color="#1DACD8"/>
</linearGradient>
<linearGradient id="paint6_linear" x1="46.5948" y1="20.1908" x2="46.5948" y2="-0.644956" gradientUnits="userSpaceOnUse">
<stop stop-color="#136AB4"/>
<stop offset="0.6" stop-color="#59CAF5" stop-opacity="0.54902"/>
<stop offset="1" stop-color="#59CAF5" stop-opacity="0.235294"/>
</linearGradient>
<linearGradient id="paint7_linear" x1="-0.000118906" y1="11.1732" x2="15.6277" y2="11.1732" gradientUnits="userSpaceOnUse">
<stop stop-color="#05A1E6" stop-opacity="0.247059"/>
<stop offset="1" stop-color="#05A1E6"/>
</linearGradient>
<linearGradient id="paint8_linear" x1="8.65499" y1="20.7155" x2="8.65499" y2="-0.618606" gradientUnits="userSpaceOnUse">
<stop stop-color="#318ED5"/>
<stop offset="1" stop-color="#38A7E4"/>
</linearGradient>
<linearGradient id="paint9_linear" x1="10.0036" y1="20.7906" x2="10.0036" y2="0.0526884" gradientUnits="userSpaceOnUse">
<stop stop-color="#05A1E6"/>
<stop offset="1" stop-color="#05A1E6" stop-opacity="0.54902"/>
</linearGradient>
<linearGradient id="paint10_linear" x1="11.1232" y1="21.8487" x2="11.1232" y2="4.32485" gradientUnits="userSpaceOnUse">
<stop stop-color="#1959A6"/>
<stop offset="0.5" stop-color="#05A1E6"/>
<stop offset="0.917587" stop-color="#7EC5EA"/>
<stop offset="1" stop-color="#7EC5EA"/>
</linearGradient>
<linearGradient id="paint11_linear" x1="11.7977" y1="20.7293" x2="5.87724" y2="2.56151" gradientUnits="userSpaceOnUse">
<stop stop-color="#165096"/>
<stop offset="1" stop-color="#0D82CA"/>
</linearGradient>
<linearGradient id="paint12_linear" x1="43.0115" y1="9.98371" x2="43.0115" y2="0.0540223" gradientUnits="userSpaceOnUse">
<stop stop-color="#05A1E6"/>
<stop offset="0.873627" stop-color="#0495D6"/>
<stop offset="1" stop-color="#0495D6"/>
</linearGradient>
<linearGradient id="paint13_linear" x1="47.6988" y1="-0.863784" x2="38.4696" y2="19.7123" gradientUnits="userSpaceOnUse">
<stop stop-color="#38A7E4" stop-opacity="0.329412"/>
<stop offset="0.961533" stop-color="#0E88D3"/>
<stop offset="1" stop-color="#0E88D3"/>
</linearGradient>
<linearGradient id="paint14_linear" x1="44.0695" y1="-0.0602967" x2="44.0695" y2="21.6024" gradientUnits="userSpaceOnUse">
<stop stop-color="#168CD4"/>
<stop offset="0.5" stop-color="#1C87CC"/>
<stop offset="1" stop-color="#154B8D"/>
</linearGradient>
<linearGradient id="paint15_linear" x1="16.3243" y1="-0.50559" x2="16.4178" y2="1.76638" gradientUnits="userSpaceOnUse">
<stop stop-color="#97D6EE"/>
<stop offset="0.703293" stop-color="#55C1EA"/>
<stop offset="1" stop-color="#55C1EA"/>
</linearGradient>
<linearGradient id="paint16_linear" x1="19.221" y1="1.97907" x2="19.6436" y2="-0.428128" gradientUnits="userSpaceOnUse">
<stop stop-color="#7ACCEC"/>
<stop offset="1" stop-color="#3FB7ED"/>
</linearGradient>
<linearGradient id="paint17_linear" x1="41.1246" y1="1.13773" x2="41.1246" y2="22.326" gradientUnits="userSpaceOnUse">
<stop stop-color="#1DA7E7"/>
<stop offset="1" stop-color="#37ABE7" stop-opacity="0"/>
</linearGradient>
</defs>
</svg>
