<svg width="30" height="37" viewBox="0 0 30 37" fill="none" xmlns="http://www.w3.org/2000/svg">
<path d="M11.5122 15.0163C8.21371 15.0163 5.28781 15.7615 3.36525 16.4097C1.9461 16.8898 1 18.2272 1 19.7258V24.3605C1 24.3605 10.2951 24.3605 10.3442 24.3605" stroke="#072A3D" stroke-width="2" stroke-miterlimit="10" stroke-linecap="round"/>
<path d="M11.512 15.0163C8.28708 15.0163 5.67188 11.2331 5.67188 8.00814V6.84012C5.67188 3.6152 8.28708 1 11.512 1C14.7369 1 17.3521 3.6152 17.3521 6.84012V8.00814C17.3521 11.2331 14.7369 15.0163 11.512 15.0163Z" stroke="#072A3D" stroke-width="2" stroke-miterlimit="10" stroke-linecap="round"/>
<g filter="url(#filter0_dd)">
<path d="M25.7809 18.8902C25.7769 18.589 25.5452 18.3402 25.2453 18.3127C22.7536 18.0796 20.7201 16.748 20.0497 16.2609C19.9096 16.1588 19.7198 16.1588 19.5797 16.2609C18.9106 16.748 16.8771 18.0796 14.3854 18.3127C14.0855 18.3402 13.8551 18.589 13.8498 18.8902C13.8197 20.8555 14.1353 27.5281 19.6648 29.013C19.763 29.0392 19.8664 29.0392 19.9646 29.013C25.4941 27.5294 25.8097 20.8555 25.7809 18.8902Z" fill="#21B787"/>
</g>
<defs>
<filter id="filter0_dd" x="9.84814" y="15.1843" width="19.9343" height="20.8483" filterUnits="userSpaceOnUse" color-interpolation-filters="sRGB">
<feFlood flood-opacity="0" result="BackgroundImageFix"/>
<feColorMatrix in="SourceAlpha" type="matrix" values="0 0 0 0 0 0 0 0 0 0 0 0 0 0 0 0 0 0 127 0"/>
<feOffset dy="3"/>
<feGaussianBlur stdDeviation="2"/>
<feColorMatrix type="matrix" values="0 0 0 0 0.129412 0 0 0 0 0.717647 0 0 0 0 0.529412 0 0 0 0.24 0"/>
<feBlend mode="normal" in2="BackgroundImageFix" result="effect1_dropShadow"/>
<feColorMatrix in="SourceAlpha" type="matrix" values="0 0 0 0 0 0 0 0 0 0 0 0 0 0 0 0 0 0 127 0"/>
<feOffset dy="1"/>
<feGaussianBlur stdDeviation="0.5"/>
<feColorMatrix type="matrix" values="0 0 0 0 0.129412 0 0 0 0 0.717647 0 0 0 0 0.529412 0 0 0 0.32 0"/>
<feBlend mode="normal" in2="effect1_dropShadow" result="effect2_dropShadow"/>
<feBlend mode="normal" in="SourceGraphic" in2="effect2_dropShadow" result="shape"/>
</filter>
</defs>
</svg>
