<svg width="26" height="32" viewBox="0 0 26 32" fill="none" xmlns="http://www.w3.org/2000/svg">
<path d="M21.7144 17.0006C21.7593 21.8433 25.9535 23.4548 26 23.4753C25.9645 23.5889 25.3298 25.7718 23.7903 28.0265C22.4593 29.976 21.0781 31.9181 18.9022 31.9583C16.7641 31.9978 16.0766 30.6878 13.6322 30.6878C11.1885 30.6878 10.4247 31.9182 8.40075 31.9979C6.30043 32.0776 4.701 29.89 3.35912 27.9477C0.617022 23.9748 -1.47851 16.7212 1.33526 11.825C2.73308 9.39347 5.23109 7.85374 7.94245 7.81425C10.0049 7.77483 11.9516 9.20479 13.2124 9.20479C14.4725 9.20479 16.8381 7.48513 19.3251 7.73769C20.3662 7.78111 23.2887 8.15915 25.1652 10.9119C25.014 11.0058 21.6781 12.952 21.7144 17.0006ZM17.6962 5.10928C18.8112 3.75662 19.5617 1.8736 19.357 0C17.7497 0.0647388 15.8061 1.07336 14.6532 2.42528C13.62 3.62246 12.7152 5.53862 12.9593 7.37514C14.7509 7.51404 16.581 6.4628 17.6962 5.10928Z" fill="black"/>
</svg>
