<svg width="50" height="52" viewBox="0 0 50 52" fill="none" xmlns="http://www.w3.org/2000/svg">
<path d="M43 16.25H1" stroke="#072A3D" stroke-width="2" stroke-miterlimit="10" stroke-linecap="round" stroke-linejoin="round"/>
<path d="M24 41H4.75C3.75544 41 2.80161 40.6049 2.09835 39.9016C1.39509 39.1984 1 38.2446 1 37.25V9.5C1 8.50544 1.39509 7.55161 2.09835 6.84835C2.80161 6.14509 3.75544 5.75 4.75 5.75H39.25C40.2446 5.75 41.1984 6.14509 41.9016 6.84835C42.6049 7.55161 43 8.50544 43 9.5V24.5" stroke="#072A3D" stroke-width="2" stroke-miterlimit="10" stroke-linecap="round" stroke-linejoin="round"/>
<path d="M10.75 1.25V10.25" stroke="#072A3D" stroke-width="2" stroke-miterlimit="10" stroke-linecap="round" stroke-linejoin="round"/>
<path d="M33.25 1.25V10.25" stroke="#072A3D" stroke-width="2" stroke-miterlimit="10" stroke-linecap="round" stroke-linejoin="round"/>
<g filter="url(#filter0_dd)">
<path d="M36.25 44.75C41.2206 44.75 45.25 40.7206 45.25 35.75C45.25 30.7794 41.2206 26.75 36.25 26.75C31.2794 26.75 27.25 30.7794 27.25 35.75C27.25 40.7206 31.2794 44.75 36.25 44.75Z" fill="#21B787"/>
</g>
<path d="M32.5 36.5L34.75 38.75L40 33.5" stroke="white" stroke-width="2" stroke-miterlimit="10" stroke-linecap="round" stroke-linejoin="round"/>
<defs>
<filter id="filter0_dd" x="23.25" y="25.75" width="26" height="26" filterUnits="userSpaceOnUse" color-interpolation-filters="sRGB">
<feFlood flood-opacity="0" result="BackgroundImageFix"/>
<feColorMatrix in="SourceAlpha" type="matrix" values="0 0 0 0 0 0 0 0 0 0 0 0 0 0 0 0 0 0 127 0"/>
<feOffset dy="3"/>
<feGaussianBlur stdDeviation="2"/>
<feColorMatrix type="matrix" values="0 0 0 0 0.129412 0 0 0 0 0.717647 0 0 0 0 0.529412 0 0 0 0.32 0"/>
<feBlend mode="normal" in2="BackgroundImageFix" result="effect1_dropShadow"/>
<feColorMatrix in="SourceAlpha" type="matrix" values="0 0 0 0 0 0 0 0 0 0 0 0 0 0 0 0 0 0 127 0"/>
<feOffset dy="1"/>
<feGaussianBlur stdDeviation="0.5"/>
<feColorMatrix type="matrix" values="0 0 0 0 0.129412 0 0 0 0 0.717647 0 0 0 0 0.529412 0 0 0 0.24 0"/>
<feBlend mode="normal" in2="effect1_dropShadow" result="effect2_dropShadow"/>
<feBlend mode="normal" in="SourceGraphic" in2="effect2_dropShadow" result="shape"/>
</filter>
</defs>
</svg>
