<svg width="268" height="253" viewBox="0 0 268 253" fill="none" xmlns="http://www.w3.org/2000/svg">
<path d="M129.178 70.3865C159.737 75.502 180.338 104.321 175.233 134.814C175.193 135.052 175.134 135.408 175.094 135.645C173.823 142.507 171.423 148.813 168.032 154.466C165.137 159.349 161.469 163.736 157.305 167.43C149.117 174.719 138.889 179.594 127.751 181.144C122.241 181.93 116.513 181.825 110.806 180.869C80.2469 175.754 59.6459 146.935 64.7702 116.323C65.7236 110.628 67.6084 105.21 70.0281 100.249C75.1251 90.2461 83.0952 82.0663 92.6497 76.8351C97.5063 74.1109 102.858 72.0794 108.309 70.9182C114.77 69.5603 121.528 69.3499 128.445 70.3857C128.702 70.3069 128.94 70.3467 129.178 70.3865Z" fill="#FAAA4B"/>
<path d="M162.355 137.108L162.354 137.11C159.485 141.947 155.851 146.294 151.725 149.955L151.724 149.955C143.608 157.181 133.471 162.012 122.433 163.548L122.432 163.548C116.976 164.326 111.3 164.223 105.64 163.275C75.3532 158.205 54.9364 129.643 60.0151 99.3044C60.9591 93.6652 62.8262 88.2952 65.2273 83.3707C70.2792 73.4587 78.1772 65.3544 87.6416 60.1727L87.646 60.1701C92.4592 57.4702 97.7635 55.4568 103.164 54.3063C109.566 52.961 116.264 52.752 123.122 53.7791L123.234 53.7959L123.343 53.7628C123.472 53.7232 123.597 53.7367 123.847 53.7786C154.134 58.8486 174.551 87.411 169.492 117.631L169.492 117.632L169.491 117.633L169.491 117.635L169.491 117.636L169.491 117.638L169.49 117.639L169.49 117.64L169.49 117.642L169.49 117.643L169.489 117.645L169.489 117.646L169.489 117.648L169.489 117.649L169.488 117.65L169.488 117.652L169.488 117.653L169.488 117.655L169.488 117.656L169.487 117.658L169.487 117.659L169.487 117.66L169.487 117.662L169.486 117.663L169.486 117.665L169.486 117.666L169.486 117.668L169.485 117.669L169.485 117.671L169.485 117.672L169.485 117.674L169.484 117.675L169.484 117.676L169.484 117.678L169.484 117.679L169.483 117.681L169.483 117.682L169.483 117.684L169.483 117.685L169.482 117.687L169.482 117.688L169.482 117.69L169.482 117.691L169.481 117.693L169.481 117.694L169.481 117.696L169.481 117.697L169.48 117.699L169.48 117.7L169.48 117.702L169.48 117.703L169.479 117.705L169.479 117.706L169.479 117.708L169.479 117.709L169.478 117.711L169.478 117.712L169.478 117.714L169.478 117.716L169.477 117.717L169.477 117.719L169.477 117.72L169.477 117.722L169.476 117.723L169.476 117.725L169.476 117.726L169.476 117.728L169.475 117.729L169.475 117.731L169.475 117.732L169.474 117.734L169.474 117.736L169.474 117.737L169.474 117.739L169.473 117.74L169.473 117.742L169.473 117.743L169.473 117.745L169.472 117.747L169.472 117.748L169.472 117.75L169.472 117.751L169.471 117.753L169.471 117.754L169.471 117.756L169.471 117.758L169.47 117.759L169.47 117.761L169.47 117.762L169.469 117.764L169.469 117.766L169.469 117.767L169.469 117.769L169.468 117.77L169.468 117.772L169.468 117.773L169.468 117.775L169.467 117.777L169.467 117.778L169.467 117.78L169.467 117.782L169.466 117.783L169.466 117.785L169.466 117.786L169.465 117.788L169.465 117.79L169.465 117.791L169.465 117.793L169.464 117.794L169.464 117.796L169.464 117.798L169.464 117.799L169.463 117.801L169.463 117.803L169.463 117.804L169.462 117.806L169.462 117.807L169.462 117.809L169.462 117.811L169.461 117.812L169.461 117.814L169.461 117.816L169.461 117.817L169.46 117.819L169.46 117.821L169.46 117.822L169.459 117.824L169.459 117.826L169.459 117.827L169.459 117.829L169.458 117.83L169.458 117.832L169.458 117.834L169.458 117.835L169.457 117.837L169.457 117.839L169.457 117.84L169.456 117.842L169.456 117.844L169.456 117.845L169.456 117.847L169.455 117.849L169.455 117.85L169.455 117.852L169.454 117.854L169.454 117.855L169.454 117.857L169.454 117.859L169.453 117.86L169.453 117.862L169.453 117.864L169.452 117.865L169.452 117.867L169.452 117.869L169.452 117.871L169.451 117.872L169.451 117.874L169.451 117.876L169.451 117.877L169.45 117.879L169.45 117.881L169.45 117.882L169.449 117.884L169.449 117.886L169.449 117.887L169.449 117.889L169.448 117.891L169.448 117.892L169.448 117.894L169.447 117.896L169.447 117.898L169.447 117.899L169.447 117.901L169.446 117.903L169.446 117.904L169.446 117.906L169.445 117.908L169.445 117.91L169.445 117.911L169.445 117.913L169.444 117.915L169.444 117.916L169.444 117.918L169.443 117.92L169.443 117.921L169.443 117.923L169.443 117.925L169.442 117.927L169.442 117.928L169.442 117.93L169.441 117.932L169.441 117.933L169.441 117.935L169.441 117.937L169.44 117.939L169.44 117.94L169.44 117.942L169.439 117.944L169.439 117.945L169.439 117.947L169.439 117.949L169.438 117.951L169.438 117.952L169.438 117.954L169.437 117.956L169.437 117.958L169.437 117.959L169.436 117.961L169.436 117.963L169.436 117.964L169.436 117.966L169.435 117.968L169.435 117.97L169.435 117.971L169.434 117.973L169.434 117.975L169.434 117.977L169.434 117.978L169.433 117.98L169.433 117.982L169.433 117.983L169.432 117.985L169.432 117.987L169.432 117.989L169.432 117.99L169.431 117.992L169.431 117.994L169.431 117.996L169.43 117.997L169.43 117.999L169.43 118.001L169.43 118.003L169.429 118.004L169.429 118.006L169.429 118.008L169.428 118.009L169.428 118.011L169.428 118.013L169.428 118.015L169.427 118.016L169.427 118.018L169.427 118.02L169.426 118.022L169.426 118.023L169.426 118.025L169.425 118.027L169.425 118.029L169.425 118.03L169.425 118.032L169.424 118.034L169.424 118.036L169.424 118.037L169.423 118.039L169.423 118.041L169.423 118.042L169.423 118.044L169.422 118.046L169.422 118.048L169.422 118.049L169.421 118.051L169.421 118.053L169.421 118.055L169.421 118.056L169.42 118.058L169.42 118.06L169.42 118.062L169.419 118.063L169.419 118.065L169.419 118.067L169.418 118.069L169.418 118.07L169.418 118.072L169.418 118.074L169.417 118.075L169.417 118.077L169.417 118.079L169.416 118.081L169.416 118.082L169.416 118.084L169.416 118.086L169.415 118.088L169.415 118.089L169.415 118.091L169.414 118.093L169.414 118.095L169.414 118.096L169.414 118.098L169.413 118.1L169.413 118.102L169.413 118.103L169.412 118.105L169.412 118.107L169.412 118.108L169.412 118.11L169.411 118.112L169.411 118.114L169.411 118.115L169.41 118.117L169.41 118.119L169.41 118.121L169.409 118.122L169.409 118.124L169.409 118.126L169.409 118.127L169.408 118.129L169.408 118.131L169.408 118.133L169.407 118.134L169.407 118.136L169.407 118.138L169.407 118.14L169.406 118.141L169.406 118.143L169.406 118.145L169.405 118.146L169.405 118.148L169.405 118.15L169.405 118.152L169.404 118.153L169.404 118.155L169.404 118.157L169.403 118.158L169.403 118.16L169.403 118.162L169.403 118.164L169.402 118.165L169.402 118.167L169.402 118.169L169.401 118.17L169.401 118.172L169.401 118.174L169.401 118.176L169.4 118.177L169.4 118.179L169.4 118.181L169.399 118.182L169.399 118.184L169.399 118.186L169.399 118.187L169.398 118.189L169.398 118.191L169.398 118.193L169.397 118.194L169.397 118.196L169.397 118.198L169.397 118.199L169.396 118.201L169.396 118.203L169.396 118.204L169.395 118.206L169.395 118.208L169.395 118.21L169.395 118.211L169.394 118.213L169.394 118.215L169.394 118.216L169.393 118.218L169.393 118.22L169.393 118.221L169.393 118.223L169.392 118.225L169.392 118.226L169.392 118.228L169.392 118.23L169.391 118.231L169.391 118.233L169.391 118.235L169.39 118.236L169.39 118.238L169.39 118.24L169.39 118.241L169.389 118.243L169.389 118.245L169.389 118.246L169.388 118.248L169.388 118.25L169.388 118.251L169.388 118.253L169.387 118.255L169.387 118.256L169.387 118.258L169.386 118.26L169.386 118.261L169.386 118.263L169.386 118.265L169.385 118.266L169.385 118.268L169.385 118.27L169.385 118.271L169.384 118.273L169.384 118.275L169.384 118.276L169.383 118.278L169.383 118.28L169.383 118.281L169.383 118.283L169.382 118.284L169.382 118.286L169.382 118.288L169.382 118.289L169.381 118.291L169.381 118.293L169.381 118.294L169.38 118.296L169.38 118.297L169.38 118.299L169.38 118.301L169.379 118.302L169.379 118.304L169.379 118.306L169.379 118.307L169.378 118.309L169.378 118.31L169.378 118.312L169.377 118.314L169.377 118.315L169.377 118.317L169.377 118.318L169.376 118.32L169.376 118.322L169.376 118.323L169.376 118.325L169.375 118.326L169.375 118.328L169.375 118.33L169.375 118.331L169.374 118.333L169.374 118.334L169.374 118.336L169.373 118.337L169.373 118.339L169.373 118.341L169.373 118.342L169.372 118.344L169.372 118.345L169.372 118.347L169.372 118.348L169.371 118.35L169.371 118.352L169.371 118.353L169.371 118.355L169.37 118.356L169.37 118.358L169.37 118.359L169.37 118.361L169.369 118.362L169.369 118.364L169.369 118.366L169.369 118.367L169.368 118.369L169.368 118.37L169.368 118.372L169.367 118.373L169.367 118.375L169.367 118.376L169.367 118.378L169.366 118.379L169.366 118.381L169.366 118.382L169.366 118.384L169.365 118.385L169.365 118.387L169.365 118.389L169.365 118.39L169.364 118.392L169.364 118.393L169.364 118.395L169.364 118.396L169.363 118.398L169.363 118.399L169.363 118.401L169.363 118.402L169.362 118.404L169.362 118.405L169.362 118.407L169.362 118.408L169.361 118.409L169.361 118.411L169.361 118.412L169.361 118.414L169.36 118.415L169.36 118.417L169.36 118.418L169.36 118.42L169.359 118.421L169.359 118.423L169.359 118.424L169.359 118.426L169.358 118.427L169.358 118.429L169.358 118.43L169.358 118.431L169.358 118.433L169.357 118.434L169.357 118.436L169.357 118.437L169.357 118.439L169.356 118.44L169.356 118.441L169.356 118.443L169.356 118.444L169.355 118.446L169.355 118.447L169.355 118.449L169.355 118.45L169.354 118.451L169.354 118.453L169.354 118.454L169.354 118.456L169.353 118.457C168.093 125.26 165.714 131.508 162.355 137.108Z" stroke="#072A3D"/>
<path d="M169.421 213.591L172.463 203.495" stroke="#072A3D" stroke-width="2" stroke-miterlimit="10"/>
<path d="M205.741 136.107L201.546 124.427" stroke="#072A3D" stroke-width="2" stroke-miterlimit="10"/>
<path d="M198.189 131.951L209.074 128.543" stroke="#072A3D" stroke-width="2" stroke-miterlimit="10"/>
<path d="M191.393 174.481C191.598 173.257 190.77 172.097 189.544 171.892C188.317 171.687 187.157 172.513 186.952 173.738C186.747 174.963 187.575 176.122 188.801 176.327C190.028 176.533 191.188 175.706 191.393 174.481Z" stroke="#072A3D" stroke-width="2" stroke-miterlimit="10"/>
<path d="M225.273 195.746C225.478 194.521 224.65 193.362 223.423 193.157C222.197 192.951 221.036 193.778 220.831 195.003C220.626 196.227 221.454 197.387 222.681 197.592C223.907 197.797 225.068 196.971 225.273 195.746Z" stroke="#072A3D" stroke-width="2" stroke-miterlimit="10"/>
</svg>
