<svg width="305" height="292" viewBox="0 0 305 292" fill="none" xmlns="http://www.w3.org/2000/svg">
<path d="M44.0432 215.65C66.0202 219.772 91.5322 218.113 110.638 203.664C136.715 183.933 143.828 146.177 172.091 129.799C191.194 118.741 214.317 120.991 234.589 112.772C252.817 105.397 267.756 89.205 273.151 71.1586" stroke="#072A3D" stroke-miterlimit="10"/>
<path d="M246.118 216.736C242.679 211.532 242.518 205.102 245.087 199.822C246.379 197.206 248.362 194.862 250.984 193.135C252.295 192.271 253.72 191.59 255.159 191.125C258.287 190.113 261.67 190.062 264.749 190.934C268.124 191.874 271.21 193.787 273.513 196.667C273.873 197.1 274.182 197.549 274.492 197.998C279.658 205.83 277.491 216.419 269.609 221.55C269.028 221.958 268.415 222.266 267.852 222.559C260.859 226.029 252.342 224.281 247.326 218.268C246.917 217.851 246.509 217.269 246.118 216.736Z" fill="#2FA2FA"/>
<path d="M259.184 197.375L259.186 197.376C262.467 198.29 265.461 200.147 267.694 202.94L267.694 202.94L267.7 202.947C268.042 203.359 268.338 203.788 268.649 204.238C273.659 211.839 271.554 222.113 263.908 227.092L263.901 227.097L263.893 227.102C263.386 227.458 262.851 227.735 262.319 228.01C262.278 228.031 262.238 228.052 262.197 228.073C255.41 231.439 247.147 229.74 242.281 223.908L242.268 223.893L242.254 223.878C241.931 223.549 241.606 223.104 241.264 222.636C241.21 222.562 241.155 222.486 241.099 222.411C237.771 217.365 237.613 211.13 240.107 206.002C241.362 203.463 243.287 201.188 245.831 199.513C247.104 198.674 248.488 198.013 249.885 197.561C252.918 196.579 256.2 196.53 259.184 197.375Z" stroke="#072A3D"/>
<path d="M115.197 98.6993L96.2991 69.9422C94.1935 66.7859 95.0841 62.5769 98.2404 60.4712L126.997 41.5736C130.154 39.468 134.363 40.3586 136.468 43.5149L155.39 72.3475C157.472 75.4282 156.605 79.7128 153.425 81.7429L124.668 100.641C121.511 102.746 117.302 101.856 115.197 98.6993Z" fill="#735CD2"/>
<path d="M226.31 188.707L222.359 178.93" stroke="#072A3D" stroke-width="2" stroke-miterlimit="10"/>
<path d="M74.2972 75.0239L65.8628 84.1276" stroke="#072A3D" stroke-width="2" stroke-miterlimit="10"/>
<path d="M74.0874 83.6406L66.048 75.5501" stroke="#072A3D" stroke-width="2" stroke-miterlimit="10"/>
<path d="M210.148 203.781L205.707 208.575" stroke="#072A3D" stroke-width="2" stroke-miterlimit="10"/>
<path d="M210.038 208.319L205.804 204.058" stroke="#072A3D" stroke-width="2" stroke-miterlimit="10"/>
<path d="M226.373 214.312C225.192 214.694 224.544 215.963 224.927 217.146C225.31 218.33 226.578 218.979 227.759 218.596C228.941 218.214 229.588 216.945 229.206 215.762C228.823 214.579 227.555 213.93 226.373 214.312Z" stroke="#072A3D" stroke-width="2" stroke-miterlimit="10"/>
<path d="M87.9433 91.2453C86.7618 91.6275 86.1143 92.8965 86.4971 94.0795C86.8799 95.2626 88.1479 95.9118 89.3294 95.5295C90.511 95.1473 91.1585 93.8783 90.7757 92.6953C90.3929 91.5122 89.1249 90.863 87.9433 91.2453Z" stroke="#072A3D" stroke-width="2" stroke-miterlimit="10"/>
<path d="M49.4934 121.03C47.3915 121.71 46.3078 124.178 47.0728 126.543C47.8379 128.908 50.1619 130.273 52.2638 129.593C54.3657 128.913 55.4494 126.445 54.6844 124.08C53.9193 121.716 51.5953 120.35 49.4934 121.03Z" stroke="#072A3D" stroke-width="2" stroke-miterlimit="10"/>
</svg>
