<svg width="1440" height="720" viewBox="0 0 1440 720" fill="none" xmlns="http://www.w3.org/2000/svg">
<path fill-rule="evenodd" clip-rule="evenodd" d="M1440 574.226C1218.95 668.081 975.787 720 720.5 720C464.828 720 221.318 667.924 0 573.801V0H1440V574.226Z" fill="url(#paint0_linear)"/>
<g opacity="0.56">
<g clip-path="url(#clip0)">
<rect x="969.416" y="90" width="465.238" height="465.238" rx="48" transform="rotate(56.3798 969.416 90)" fill="url(#paint1_linear)"/>
<rect x="220" y="578.182" width="132.318" height="132.318" rx="24" transform="rotate(-82.4861 220 578.182)" fill="url(#paint2_linear)"/>
<circle cx="1426.67" cy="328.67" r="137.5" transform="rotate(158.244 1426.67 328.67)" fill="url(#paint3_linear)"/>
<circle cx="1251.42" cy="100.416" r="47.8059" transform="rotate(-174.169 1251.42 100.416)" fill="url(#paint4_linear)"/>
<circle cx="318.516" cy="265.515" r="35.1875" transform="rotate(129.287 318.516 265.515)" fill="url(#paint5_linear)"/>
<circle cx="485.914" cy="-36.0859" r="156.279" transform="rotate(-44.3234 485.914 -36.0859)" fill="url(#paint6_linear)"/>
<path d="M-52.9012 231.745C-64.6818 222.771 -62.3916 204.426 -48.4434 198.751L-42.5154 196.339L55.188 155.773L98.286 137.832L128.133 125.282L159.027 112.306C172.626 106.773 187.281 117.817 185.604 132.673L182.635 155.343L170.402 244.145L161.694 309.645L155.756 354.985C153.588 369.635 136.643 376.935 124.863 367.96L77.7405 332.062L35.8771 300.097L-41.6107 240.514L-52.9012 231.745Z" fill="url(#paint7_linear)"/>
</g>
</g>
<defs>
<linearGradient id="paint0_linear" x1="720" y1="330.728" x2="720" y2="702.961" gradientUnits="userSpaceOnUse">
<stop stop-color="white"/>
<stop offset="1" stop-color="#F0F7FD"/>
</linearGradient>
<linearGradient id="paint1_linear" x1="1245.06" y1="-444.033" x2="1349.14" y2="587.387" gradientUnits="userSpaceOnUse">
<stop stop-color="#currentColor"/>
<stop offset="1" stop-color="white" stop-opacity="0"/>
</linearGradient>
<linearGradient id="paint2_linear" x1="238.177" y1="496.554" x2="345.589" y2="776.229" gradientUnits="userSpaceOnUse">
<stop stop-color="#currentColor"/>
<stop offset="1" stop-color="white" stop-opacity="0"/>
</linearGradient>
<linearGradient id="paint3_linear" x1="1451.48" y1="49.8628" x2="1521.02" y2="485.514" gradientUnits="userSpaceOnUse">
<stop stop-color="#currentColor"/>
<stop offset="1" stop-color="white" stop-opacity="0"/>
</linearGradient>
<linearGradient id="paint4_linear" x1="1260.04" y1="3.48012" x2="1284.22" y2="154.947" gradientUnits="userSpaceOnUse">
<stop stop-color="#currentColor"/>
<stop offset="1" stop-color="white" stop-opacity="0"/>
</linearGradient>
<linearGradient id="paint5_linear" x1="324.865" y1="194.166" x2="342.659" y2="305.653" gradientUnits="userSpaceOnUse">
<stop stop-color="#currentColor"/>
<stop offset="1" stop-color="white" stop-opacity="0"/>
</linearGradient>
<linearGradient id="paint6_linear" x1="514.115" y1="-352.972" x2="593.145" y2="142.179" gradientUnits="userSpaceOnUse">
<stop stop-color="#currentColor"/>
<stop offset="1" stop-color="white" stop-opacity="0"/>
</linearGradient>
<linearGradient id="paint7_linear" x1="-156.338" y1="343.842" x2="199.408" y2="118.456" gradientUnits="userSpaceOnUse">
<stop stop-color="#currentColor"/>
<stop offset="1" stop-color="white" stop-opacity="0"/>
</linearGradient>
<clipPath id="clip0">
<rect width="1440" height="720" fill="white"/>
</clipPath>
</defs>
</svg>
