<svg width="3840" height="1034" viewBox="0 0 3840 1034" fill="none" xmlns="http://www.w3.org/2000/svg">
<g clip-path="url(#clip0)">
<path d="M1364.34 191.156L1476.33 357.295C1488.81 375.527 1483.86 400.097 1465.56 412.577L1298.81 524.607C1280.51 537.086 1255.88 532.192 1243.41 513.959L1131.27 347.383C1118.94 329.589 1123.74 304.58 1142.19 292.539L1308.94 180.509C1327.24 168.029 1351.86 172.924 1364.34 191.156Z" fill="url(#paint0_linear)"/>
<path d="M457.85 775.961L517.275 864.114C523.895 873.788 521.267 886.825 511.557 893.446L423.078 952.89C413.368 959.511 400.304 956.914 393.684 947.24L334.181 858.855C327.639 849.413 330.189 836.143 339.977 829.754L428.456 770.311C438.166 763.689 451.23 766.286 457.85 775.961Z" fill="url(#paint1_linear)"/>
<path d="M3412.1 837.736L3090 566.479C3054.27 536.818 3050.12 484.303 3079.92 448.533L3352.39 126.005C3382.19 90.2353 3434.78 85.9394 3470.5 115.601L3793.15 387.658C3828.33 416.518 3833.03 469.834 3802.68 504.803L3530.21 827.332C3500.41 863.101 3447.83 867.397 3412.1 837.736Z" fill="url(#paint2_linear)"/>
<path d="M2508.81 1051.87L2374.6 1000.69C2359.76 995.155 2352.52 978.708 2358.1 963.841L2409.62 829.353C2415.2 814.486 2431.65 807.194 2446.49 812.734L2580.97 864.103C2595.54 869.446 2603.04 886.089 2597.2 900.76L2545.68 1035.25C2540.1 1050.12 2523.65 1057.41 2508.81 1051.87Z" fill="url(#paint3_linear)"/>
<path d="M1830.68 448.107C1846.6 433.535 1872.32 441.571 1876.85 463.047L1878.77 472.174L1911.65 622.817L1926.22 689.279L1936.49 735.34L1947.1 783.011C1951.52 803.95 1931.88 822.109 1911.01 815.855L1879.26 805.726L1755.06 765.18L1663.37 735.726L1599.88 715.466C1579.42 708.563 1573.34 682.368 1589.27 667.795L1652.96 609.505L1709.65 557.739L1815.18 462.03L1830.68 448.107Z" fill="url(#paint4_linear)"/>
<path d="M1220.89 634.405C1247.58 640.111 1258.17 672.485 1239.38 692.9L1231.39 701.576L1100.41 845.927L1042.67 909.681L1002.78 954.042L961.478 999.933C943.158 1019.84 910.057 1012.94 901.185 986.862L888.327 946.745L838.969 789.129L802.037 673.119L776.321 592.886C768.427 566.766 790.937 541.289 817.621 546.995L924.357 569.816L1019.24 590.211L1195.19 628.658L1220.89 634.405Z" fill="url(#paint5_linear)"/>
<path d="M2836.56 400.086C2823.24 408.903 2805.36 400.061 2804.53 383.837L2804.18 376.942L2797.51 263.01L2794.53 212.736L2792.33 177.875L2790.07 141.797C2789.26 125.979 2805.71 114.967 2820.25 121.947L2842.29 133.015L2928.42 176.985L2992.07 209.096L3036.15 231.232C3050.31 238.638 3051.73 258.492 3038.41 267.31L2985.12 302.581L2937.7 333.89L2849.5 391.694L2836.56 400.086Z" fill="url(#paint6_linear)"/>
<circle cx="2467" cy="709" r="365" fill="url(#paint7_linear)"/>
<circle cx="1384" cy="848" r="135" fill="url(#paint8_linear)"/>
<circle cx="1009.5" cy="256.5" r="66.5" transform="rotate(98.0099 1009.5 256.5)" fill="url(#paint9_linear)"/>
<circle cx="3054.5" cy="850.5" r="90.5" transform="rotate(-61.32 3054.5 850.5)" fill="url(#paint10_linear)"/>
<circle cx="480.435" cy="384.436" r="282.5" transform="rotate(100.547 480.435 384.436)" fill="url(#paint11_linear)"/>
</g>
<defs>
<linearGradient id="paint0_linear" x1="842.282" y1="-516.28" x2="1354.88" y2="507.519" gradientUnits="userSpaceOnUse">
<stop stop-color="white"/>
<stop offset="1" stop-color="white" stop-opacity="0"/>
</linearGradient>
<linearGradient id="paint1_linear" x1="180.846" y1="400.594" x2="452.829" y2="943.823" gradientUnits="userSpaceOnUse">
<stop stop-color="white"/>
<stop offset="1" stop-color="white" stop-opacity="0"/>
</linearGradient>
<linearGradient id="paint2_linear" x1="4874.95" y1="1966.75" x2="3248.91" y2="192.853" gradientUnits="userSpaceOnUse">
<stop stop-color="white"/>
<stop offset="1" stop-color="white" stop-opacity="0"/>
</linearGradient>
<linearGradient id="paint3_linear" x1="3106.79" y1="1251.13" x2="2446.09" y2="873.441" gradientUnits="userSpaceOnUse">
<stop stop-color="white"/>
<stop offset="1" stop-color="white" stop-opacity="0"/>
</linearGradient>
<linearGradient id="paint4_linear" x1="1057" y1="-978" x2="1831.25" y2="805.631" gradientUnits="userSpaceOnUse">
<stop stop-color="white"/>
<stop offset="1" stop-color="white" stop-opacity="0"/>
</linearGradient>
<linearGradient id="paint5_linear" x1="2121.69" y1="-1208.25" x2="853.211" y2="897.249" gradientUnits="userSpaceOnUse">
<stop stop-color="white"/>
<stop offset="1" stop-color="white" stop-opacity="0"/>
</linearGradient>
<linearGradient id="paint6_linear" x1="3237.73" y1="1532" x2="2877.38" y2="138.621" gradientUnits="userSpaceOnUse">
<stop stop-color="white"/>
<stop offset="1" stop-color="white" stop-opacity="0"/>
</linearGradient>
<linearGradient id="paint7_linear" x1="3053" y1="-1064.5" x2="2467" y2="849" gradientUnits="userSpaceOnUse">
<stop stop-color="white"/>
<stop offset="1" stop-color="white" stop-opacity="0"/>
</linearGradient>
<linearGradient id="paint8_linear" x1="1600.74" y1="192.047" x2="1361" y2="848" gradientUnits="userSpaceOnUse">
<stop stop-color="white"/>
<stop offset="1" stop-color="white" stop-opacity="0"/>
</linearGradient>
<linearGradient id="paint9_linear" x1="1116.26" y1="-66.6172" x2="998.17" y2="256.5" gradientUnits="userSpaceOnUse">
<stop stop-color="white"/>
<stop offset="1" stop-color="white" stop-opacity="0"/>
</linearGradient>
<linearGradient id="paint10_linear" x1="3199.8" y1="410.769" x2="3039.08" y2="850.5" gradientUnits="userSpaceOnUse">
<stop stop-color="white"/>
<stop offset="1" stop-color="white" stop-opacity="0"/>
</linearGradient>
<linearGradient id="paint11_linear" x1="933.983" y1="-988.205" x2="432.306" y2="384.436" gradientUnits="userSpaceOnUse">
<stop stop-color="white"/>
<stop offset="1" stop-color="white" stop-opacity="0"/>
</linearGradient>
<clipPath id="clip0">
<rect width="3840" height="1034" fill="white"/>
</clipPath>
</defs>
</svg>
