<svg width="3840" height="533" viewBox="0 0 3840 533" fill="none" xmlns="http://www.w3.org/2000/svg">
<g clip-path="url(#clip0)">
<path d="M3840 536L0 536L4.68586e-05 3.05075e-05L3840 0.000366211L3840 536Z" fill="url(#paint0_linear)"/>
<rect x="2309" y="381.26" width="197.958" height="197.958" rx="24" transform="rotate(-69.3675 2309 381.26)" fill="url(#paint1_linear)"/>
<circle cx="1784.05" cy="455.047" r="201.144" transform="rotate(129.287 1784.05 455.047)" fill="url(#paint2_linear)"/>
<circle cx="2805.05" cy="-102.953" r="201.144" transform="rotate(129.287 2805.05 -102.953)" fill="url(#paint3_linear)"/>
<circle cx="432.208" cy="100.208" r="285.824" transform="rotate(129.287 432.208 100.208)" fill="url(#paint4_linear)"/>
<circle cx="2150.52" cy="105.515" r="35.1875" transform="rotate(129.287 2150.52 105.515)" fill="url(#paint5_linear)"/>
<circle cx="172.515" cy="405.516" r="35.1875" transform="rotate(-126.043 172.515 405.516)" fill="url(#paint6_linear)"/>
<path d="M1131.1 266.745C1119.32 257.771 1121.61 239.426 1135.56 233.751L1141.48 231.339L1239.19 190.773L1282.29 172.832L1312.13 160.282L1343.03 147.306C1356.63 141.773 1371.28 152.817 1369.6 167.673L1366.63 190.343L1354.4 279.145L1345.69 344.645L1339.76 389.985C1337.59 404.635 1320.64 411.935 1308.86 402.96L1261.74 367.062L1219.88 335.097L1142.39 275.514L1131.1 266.745Z" fill="url(#paint7_linear)"/>
<path d="M3201.6 -102.084C3208.75 -124.591 3237.53 -131 3253.54 -113.103L3260.34 -105.497L3373.7 19.4314L3423.78 74.5131L3458.65 112.593L3494.72 152.015C3510.33 169.464 3501.61 197.398 3478.4 202.855L3442.77 210.567L3302.86 239.872L3199.84 261.959L3128.57 277.385C3105.41 281.995 3085.35 260.47 3092.5 237.963L3121.11 147.935L3146.63 67.9153L3194.49 -80.4228L3201.6 -102.084Z" fill="url(#paint8_linear)"/>
<path d="M2989.62 465.378C3000.4 470.146 3002.03 484.773 2992.28 491.751L2988.13 494.716L2920 544.216L2889.95 566.088L2869.16 581.332L2847.65 597.099C2838.14 603.902 2824.75 598.064 2823.3 586.251L2821.4 568.149L2814.43 497.128L2809.04 444.801L2805.24 408.596C2804.21 396.852 2815.98 388.062 2826.76 392.829L2869.89 411.898L2908.22 428.895L2979.25 460.68L2989.62 465.378Z" fill="url(#paint9_linear)"/>
<rect x="1604.47" y="30" width="110.258" height="110.258" rx="24" transform="rotate(69.7966 1604.47 30)" fill="url(#paint10_linear)"/>
<rect x="925.713" y="343" width="307.642" height="307.642" rx="40" transform="rotate(69.7966 925.713 343)" fill="url(#paint11_linear)"/>
</g>
<defs>
<linearGradient id="paint0_linear" x1="1920" y1="289.791" x2="1920" y2="12.6846" gradientUnits="userSpaceOnUse">
<stop stop-color="white"/>
<stop offset="1" stop-color="#F8FBFF"/>
</linearGradient>
<linearGradient id="paint1_linear" x1="2336.19" y1="259.139" x2="2496.89" y2="677.554" gradientUnits="userSpaceOnUse">
<stop stop-color="#C8E3FE"/>
<stop offset="1" stop-color="white" stop-opacity="0"/>
</linearGradient>
<linearGradient id="paint2_linear" x1="1820.34" y1="47.1894" x2="1922.06" y2="684.488" gradientUnits="userSpaceOnUse">
<stop stop-color="#C8E3FE"/>
<stop offset="1" stop-color="white" stop-opacity="0"/>
</linearGradient>
<linearGradient id="paint3_linear" x1="2841.34" y1="-510.811" x2="2943.06" y2="126.488" gradientUnits="userSpaceOnUse">
<stop stop-color="#C8E3FE"/>
<stop offset="1" stop-color="white" stop-opacity="0"/>
</linearGradient>
<linearGradient id="paint4_linear" x1="483.785" y1="-479.355" x2="628.326" y2="426.242" gradientUnits="userSpaceOnUse">
<stop stop-color="#C8E3FE"/>
<stop offset="1" stop-color="white" stop-opacity="0"/>
</linearGradient>
<linearGradient id="paint5_linear" x1="2156.87" y1="34.166" x2="2174.66" y2="145.653" gradientUnits="userSpaceOnUse">
<stop stop-color="#C8E3FE"/>
<stop offset="1" stop-color="white" stop-opacity="0"/>
</linearGradient>
<linearGradient id="paint6_linear" x1="178.865" y1="334.166" x2="196.659" y2="445.653" gradientUnits="userSpaceOnUse">
<stop stop-color="#C8E3FE"/>
<stop offset="1" stop-color="white" stop-opacity="0"/>
</linearGradient>
<linearGradient id="paint7_linear" x1="1027.66" y1="378.841" x2="1383.41" y2="153.456" gradientUnits="userSpaceOnUse">
<stop stop-color="#C8E3FE"/>
<stop offset="1" stop-color="white" stop-opacity="0"/>
</linearGradient>
<linearGradient id="paint8_linear" x1="2977.75" y1="-197.22" x2="3507.16" y2="215.95" gradientUnits="userSpaceOnUse">
<stop stop-color="#C8E3FE"/>
<stop offset="1" stop-color="white" stop-opacity="0"/>
</linearGradient>
<linearGradient id="paint9_linear" x1="3048.95" y1="359.433" x2="2815.24" y2="599.815" gradientUnits="userSpaceOnUse">
<stop stop-color="#C8E3FE"/>
<stop offset="1" stop-color="white" stop-opacity="0"/>
</linearGradient>
<linearGradient id="paint10_linear" x1="1619.62" y1="-38.019" x2="1709.13" y2="195.03" gradientUnits="userSpaceOnUse">
<stop stop-color="#C8E3FE"/>
<stop offset="1" stop-color="white" stop-opacity="0"/>
</linearGradient>
<linearGradient id="paint11_linear" x1="967.974" y1="153.214" x2="1217.71" y2="803.465" gradientUnits="userSpaceOnUse">
<stop stop-color="#C8E3FE"/>
<stop offset="1" stop-color="white" stop-opacity="0"/>
</linearGradient>
<clipPath id="clip0">
<rect width="3840" height="533" fill="white"/>
</clipPath>
</defs>
</svg>
