<svg width="14" height="7" viewBox="0 0 14 7" fill="none" xmlns="http://www.w3.org/2000/svg">
<path d="M10.2333 5.23147C10.1176 5.23147 10.0045 5.20102 9.90828 5.14397C9.81206 5.08692 9.73706 5.00583 9.69278 4.91096C9.64849 4.81609 9.6369 4.7117 9.65948 4.61098C9.68206 4.51027 9.73778 4.41775 9.81961 4.34514C9.90144 4.27253 10.0057 4.22308 10.1192 4.20305C10.2327 4.18301 10.3503 4.1933 10.4573 4.23259C10.5642 4.27189 10.6556 4.33844 10.7199 4.42382C10.7841 4.5092 10.8185 4.60958 10.8185 4.71227C10.8184 4.84996 10.7568 4.98201 10.647 5.07937C10.5373 5.17673 10.3885 5.23144 10.2333 5.23147ZM3.79103 5.23147C3.67531 5.23147 3.56218 5.20102 3.46596 5.14397C3.36974 5.08692 3.29475 5.00583 3.25046 4.91096C3.20617 4.81609 3.19459 4.7117 3.21716 4.61098C3.23974 4.51027 3.29547 4.41775 3.37729 4.34514C3.45912 4.27253 3.56338 4.22308 3.67688 4.20305C3.79038 4.18301 3.90803 4.1933 4.01494 4.23259C4.12186 4.27189 4.21324 4.33844 4.27753 4.42382C4.34183 4.5092 4.37614 4.60958 4.37614 4.71227C4.37611 4.84996 4.31445 4.98201 4.20473 5.07937C4.09501 5.17673 3.9462 5.23144 3.79103 5.23147ZM10.4406 2.11627L11.6108 0.326108C11.6266 0.301596 11.6368 0.274558 11.6407 0.246545C11.6447 0.218533 11.6424 0.190099 11.634 0.162877C11.6255 0.135655 11.6111 0.110181 11.5916 0.0879182C11.572 0.0656558 11.5477 0.0470436 11.52 0.0331509C11.4923 0.0192581 11.4617 0.0103587 11.4301 0.00696361C11.3986 0.00356851 11.3665 0.00574466 11.3359 0.0133672C11.3053 0.0209898 11.2766 0.0339084 11.2516 0.0513811C11.2266 0.0688538 11.2058 0.0905361 11.1902 0.115183L10.0078 1.92698C9.06873 1.54617 8.04774 1.35059 7.01524 1.35369C5.98152 1.35145 4.95917 1.54505 4.01654 1.92157L2.82803 0.109774C2.81251 0.0851279 2.79166 0.0634455 2.76667 0.0459728C2.74167 0.0285002 2.71303 0.0155815 2.6824 0.00795896C2.65176 0.000336403 2.61973 -0.00183985 2.58814 0.00155525C2.55655 0.00495035 2.52603 0.0138499 2.49833 0.0277426C2.47063 0.0416353 2.4463 0.0602474 2.42673 0.0825098C2.40716 0.104772 2.39274 0.130246 2.3843 0.157468C2.37586 0.184691 2.37356 0.213125 2.37754 0.241137C2.38152 0.269149 2.3917 0.296188 2.40749 0.3207L3.57161 2.11086C2.56507 2.59798 1.71133 3.30017 1.08769 4.15387C0.464047 5.00756 0.0902045 5.98579 0 7H14C13.9125 5.98719 13.5411 5.00987 12.9194 4.15693C12.2977 3.30398 11.4456 2.60249 10.4406 2.11627Z" fill="white"/>
</svg>
