<svg width="13" height="17" viewBox="0 0 13 17" fill="none" xmlns="http://www.w3.org/2000/svg">
<path fill-rule="evenodd" clip-rule="evenodd" d="M3.82408 12.6445C3.82408 12.6445 3.2012 12.9941 4.26783 13.1122C5.56038 13.2545 6.2206 13.234 7.64452 12.9742C7.64452 12.9742 8.01941 13.2006 8.54271 13.3965C5.34974 14.716 1.31648 13.3201 3.82408 12.6445ZM3.43376 10.9225C3.43376 10.9225 2.73499 11.4214 3.80256 11.5279C5.18333 11.6654 6.27323 11.6766 8.16038 11.3264C8.16038 11.3264 8.42095 11.5815 8.83101 11.7208C4.97106 12.8097 0.672095 11.8066 3.43376 10.9225Z" fill="white"/>
<path fill-rule="evenodd" clip-rule="evenodd" d="M6.77948 8.01544C7.58388 8.93426 6.56863 9.76061 6.56863 9.76061C6.56863 9.76061 8.61019 8.71502 7.6725 7.40518C6.79703 6.18425 6.1255 5.57769 9.76051 3.48596C9.76038 3.48582 4.0545 4.89952 6.77948 8.01544Z" fill="white"/>
<path fill-rule="evenodd" clip-rule="evenodd" d="M10.8404 14.1994C10.8404 14.1994 11.295 14.5812 10.3397 14.8765C8.52307 15.437 2.77733 15.6061 1.18133 14.8988C0.608021 14.6444 1.68367 14.2918 2.02208 14.2173C2.37503 14.1396 2.57645 14.1537 2.57645 14.1537C1.93844 13.696 -1.54742 15.0526 0.806104 15.4418C7.22373 16.5018 12.5049 14.9645 10.8404 14.1994ZM4.11456 9.22131C4.11456 9.22131 1.19227 9.92859 3.07986 10.1857C3.87712 10.2943 5.46526 10.2693 6.94574 10.1427C8.15532 10.0393 9.36942 9.81812 9.36942 9.81812C9.36942 9.81812 8.94325 10.0044 8.63445 10.2188C5.66641 11.0142 -0.066395 10.6438 1.58416 9.83076C2.97968 9.14303 4.11456 9.22131 4.11456 9.22131ZM9.35729 12.2063C12.3742 10.6097 10.9793 9.07496 10.0054 9.28177C9.76732 9.33246 9.66048 9.37622 9.66048 9.37622C9.66048 9.37622 9.74932 9.23462 9.91819 9.17375C11.8445 8.48412 13.3256 11.2082 9.29713 12.287C9.29699 12.287 9.34341 12.2444 9.35729 12.2063Z" fill="white"/>
<path fill-rule="evenodd" clip-rule="evenodd" d="M7.70113 0C7.70113 0 9.3867 1.71732 6.10198 4.35723C3.46777 6.47568 5.5014 7.68319 6.10117 9.06338C4.56326 7.65085 3.4352 6.40716 4.1919 5.24995C5.30287 3.55126 8.38125 2.72748 7.70113 0Z" fill="white"/>
<path fill-rule="evenodd" clip-rule="evenodd" d="M4.42839 16.4461C7.40466 16.6438 11.976 16.3363 12.0845 14.8732C12.0845 14.8732 11.8763 15.4278 9.62445 15.8677C7.0838 16.3645 3.94972 16.3067 2.09151 15.9881C2.09151 15.9881 2.47228 16.3154 4.42839 16.4461Z" fill="white"/>
</svg>
