<svg width="12" height="15" viewBox="0 0 12 15" fill="none" xmlns="http://www.w3.org/2000/svg">
<path d="M9.84271 7.96902C9.86304 10.239 11.7639 10.9944 11.785 11.004C11.7689 11.0573 11.4813 12.0805 10.7835 13.1374C10.1803 14.0512 9.55432 14.9616 8.56817 14.9805C7.59917 14.999 7.28759 14.3849 6.17975 14.3849C5.07224 14.3849 4.72606 14.9616 3.80879 14.999C2.8569 15.0364 2.13202 14.0109 1.52386 13.1005C0.281107 11.2382 -0.668614 7.83807 0.606621 5.54295C1.24013 4.40319 2.37226 3.68144 3.60108 3.66293C4.53582 3.64445 5.41807 4.31474 5.98951 4.31474C6.56059 4.31474 7.63271 3.50865 8.75983 3.62704C9.23168 3.64739 10.5562 3.8246 11.4067 5.11494C11.3381 5.15898 9.82627 6.07124 9.84271 7.96902ZM8.02159 2.39497C8.52695 1.76092 8.86709 0.878248 8.7743 0C8.04585 0.0303463 7.165 0.503138 6.6425 1.13685C6.17424 1.69803 5.76415 2.59623 5.8748 3.45709C6.68674 3.52221 7.5162 3.02943 8.02159 2.39497Z" fill="white"/>
</svg>
