<svg width="17" height="7" viewBox="0 0 17 7" fill="none" xmlns="http://www.w3.org/2000/svg">
<path opacity="0.4" d="M5.84964 1.37017C6.45662 3.22632 6.68658 6.53753 8.46149 6.53753C8.59664 6.53753 8.73315 6.52431 8.87021 6.49824C7.25673 6.12204 7.0655 2.84685 6.08095 1.15076C6.00375 1.22092 5.9271 1.29405 5.84964 1.37017Z" fill="white"/>
<path opacity="0.64" d="M6.08084 1.15078C7.0654 2.84687 7.25662 6.12206 8.8701 6.49827C8.99686 6.47497 9.12389 6.43976 9.25119 6.39534C7.80293 5.6857 7.40261 2.50533 6.28452 0.974182C6.21681 1.03054 6.14883 1.08959 6.08084 1.15078Z" fill="white"/>
<path opacity="0.88" d="M7.49942 0.14209C7.36453 0.14209 7.22774 0.155305 7.09043 0.181375C6.73128 0.249087 6.36645 0.403735 5.99863 0.637753C6.0991 0.736885 6.19471 0.850363 6.28463 0.974154C6.65869 0.663754 7.0303 0.43435 7.40057 0.296475C7.53951 0.245015 7.67792 0.206293 7.81686 0.180834C7.71665 0.155348 7.61101 0.14209 7.49942 0.14209Z" fill="white"/>
<path opacity="0.4" d="M10.3817 5.74123C10.5299 5.62342 10.6783 5.49312 10.827 5.35094C10.2103 3.50343 9.98954 0.144836 8.20217 0.144836C8.07432 0.144836 7.9454 0.156753 7.81674 0.180586C9.44485 0.585525 9.65341 4.12776 10.3817 5.74123Z" fill="white"/>
<path d="M7.8168 0.180685C7.71658 0.155226 7.61095 0.141968 7.49936 0.141968L8.20223 0.144543C8.07438 0.144543 7.94546 0.15646 7.8168 0.180577" fill="white"/>
<path opacity="0.64" d="M10.3506 6.13366C10.2808 6.06703 10.2144 5.9939 10.1491 5.91589C9.84847 6.12878 9.54891 6.29021 9.25125 6.3953C9.35714 6.44705 9.46819 6.48551 9.58603 6.50935C9.67729 6.52798 9.77183 6.53752 9.87123 6.53752C10.2052 6.53752 10.4693 6.49797 10.6941 6.39017C10.5703 6.32326 10.4568 6.23658 10.3506 6.13366Z" fill="white"/>
<path opacity="0.64" d="M7.40051 0.296752C8.8588 1.05947 8.98556 4.51341 10.1491 5.91589C10.2272 5.86092 10.3043 5.80268 10.3815 5.74118C9.65321 4.12771 9.44492 0.585197 7.81709 0.180542C7.67814 0.206543 7.53946 0.245029 7.40051 0.296752Z" fill="white"/>
<path d="M6.28461 0.974148C7.40269 2.5053 7.80302 5.68567 9.25127 6.39531C9.54894 6.29022 9.84851 6.12879 10.1492 5.9159C8.98557 4.51341 8.85881 1.05947 7.40052 0.296753C7.03027 0.434344 6.65866 0.663748 6.28461 0.974148Z" fill="url(#paint0_linear)"/>
<path opacity="0.4" d="M5.13417 1.32549C4.95892 1.72177 4.77989 2.2426 4.56348 2.92245C4.99386 2.316 5.4229 1.79353 5.84949 1.3702C5.79072 1.18953 5.72761 1.02296 5.65963 0.874512C5.4852 1.00805 5.30941 1.15839 5.13417 1.32549Z" fill="white"/>
<path d="M5.81504 0.760254C5.76358 0.797088 5.71185 0.834747 5.65985 0.874554C5.72783 1.02298 5.79066 1.18957 5.84945 1.37022C5.92689 1.29438 6.00381 1.22098 6.08074 1.15082C5.99814 1.00889 5.91038 0.8778 5.81504 0.760254Z" fill="#FFF9F3"/>
<path opacity="0.64" d="M5.9987 0.637756C5.93749 0.6765 5.87656 0.717385 5.81506 0.760179C5.9104 0.87773 5.99816 1.00882 6.08104 1.15103C6.14903 1.08954 6.21701 1.03023 6.28473 0.974158C6.1948 0.850388 6.0992 0.736888 5.9987 0.637756Z" fill="white"/>
<path opacity="0.4" d="M15.9454 0.000745794C15.1206 3.18138 13.398 5.73608 11.9538 6.38017H11.9511C11.9248 6.39209 11.8988 6.40292 11.873 6.41347C11.8695 6.41562 11.8663 6.41589 11.8636 6.41717C11.856 6.42023 11.8489 6.42259 11.8413 6.42562C11.8378 6.42777 11.8346 6.42847 11.8313 6.42976C11.8192 6.4341 11.8072 6.43778 11.7953 6.44254C11.7902 6.44469 11.7853 6.44603 11.7804 6.44775C11.775 6.44989 11.7687 6.45188 11.7625 6.4536C11.7571 6.45575 11.7514 6.4573 11.7452 6.45966C11.74 6.46181 11.7346 6.46272 11.7298 6.46487C11.7192 6.46793 11.7095 6.4705 11.6989 6.47418C11.6945 6.47418 11.6905 6.47654 11.6859 6.47767C11.6794 6.47982 11.6721 6.48137 11.665 6.4833C11.6601 6.48545 11.6561 6.48615 11.6509 6.48722C11.6436 6.48937 11.6355 6.49135 11.6282 6.49307C11.6184 6.49522 11.6098 6.49721 11.6006 6.49914C11.6658 6.52325 11.7338 6.53543 11.8072 6.53543C13.1767 6.53543 14.5575 4.08124 16.8421 0H15.9451L15.9454 0.000745794Z" fill="white"/>
<path opacity="0.4" d="M4.26613 0.271181C4.26699 0.271181 4.26806 0.269034 4.2686 0.269034C4.26967 0.269034 4.27134 0.269034 4.27187 0.266888H4.27359C4.28117 0.264313 4.28822 0.261254 4.2958 0.258438C4.29773 0.258438 4.29875 0.258438 4.30014 0.256291C4.30208 0.256291 4.30395 0.254145 4.30584 0.253877C4.31397 0.251302 4.32209 0.248243 4.32968 0.245426H4.33097C4.34912 0.240013 4.36591 0.233295 4.38351 0.227012C4.38598 0.227012 4.38839 0.224866 4.39136 0.224866C4.39868 0.222505 4.40627 0.219876 4.41384 0.218149C4.41738 0.216002 4.42088 0.216002 4.42413 0.214876C4.43197 0.212515 4.43958 0.209886 4.44688 0.208158C4.45016 0.208158 4.45312 0.206012 4.45555 0.205797C4.48074 0.198865 4.50566 0.192362 4.53085 0.186294C4.53439 0.186294 4.53735 0.184148 4.54114 0.183933C4.54844 0.181787 4.55523 0.18066 4.56308 0.179587C4.56635 0.177441 4.57012 0.177441 4.57391 0.176314C4.58122 0.174168 4.58826 0.173954 4.59612 0.172183H4.60127C4.61644 0.169125 4.63188 0.166549 4.64705 0.163733H4.65626C4.66356 0.161586 4.67006 0.161372 4.67739 0.16003C4.68141 0.16003 4.68551 0.157884 4.6893 0.157884C4.69606 0.157884 4.70285 0.155738 4.70961 0.154826C4.71315 0.154826 4.71665 0.154826 4.72072 0.15268C4.73669 0.150534 4.75322 0.149675 4.77002 0.148334C4.72262 0.143773 4.67386 0.140747 4.6243 0.140747C3.08205 0.140747 0.9572 3.00232 0 6.70814H0.184452C0.490788 6.16184 0.765976 5.64505 1.0176 5.15994C1.68796 2.5351 3.05334 0.745012 4.26623 0.270757" fill="white"/>
<path opacity="0.72" d="M5.13422 1.32547C5.30947 1.15837 5.48524 1.00803 5.65967 0.874513C5.61987 0.787298 5.5787 0.706581 5.53454 0.632629C5.39343 0.803808 5.2645 1.0297 5.13422 1.32547Z" fill="white"/>
<path opacity="0.72" d="M5.2609 0.292849C5.36165 0.377354 5.45184 0.493559 5.53446 0.632781C5.56046 0.600819 5.58674 0.571287 5.61409 0.543661C5.49953 0.43668 5.37574 0.348923 5.24139 0.282837C5.24681 0.285842 5.25223 0.288256 5.25786 0.290638C5.25786 0.290638 5.26001 0.292784 5.26092 0.292784" fill="white"/>
<path opacity="0.64" d="M1.01749 5.16026C2.42376 2.45035 3.09006 0.7353 4.26611 0.271057C3.0535 0.745613 1.68785 2.53568 1.01749 5.16026Z" fill="white"/>
<path d="M5.61399 0.54364C5.58665 0.571551 5.56065 0.600803 5.53436 0.632765C5.57852 0.706695 5.61967 0.78715 5.65978 0.874628C5.71178 0.834822 5.7635 0.797162 5.81497 0.760328C5.75133 0.681778 5.68415 0.608927 5.61399 0.54364Z" fill="white"/>
<path opacity="0.4" d="M1.65593 6.69627C1.64726 6.69842 1.6386 6.69842 1.63047 6.69933H1.62559C1.61827 6.69933 1.61068 6.70148 1.60392 6.70148H1.60039C1.5828 6.70362 1.56545 6.70362 1.54866 6.70496H1.54324C2.96658 6.66514 3.61717 5.95251 3.94003 4.91893C4.18543 4.13536 4.38695 3.47528 4.56354 2.92139C3.96739 3.7605 3.36853 4.76075 2.76642 5.88128C2.47607 6.42136 2.03457 6.64698 1.65592 6.69521" fill="white"/>
<path opacity="0.64" d="M1.65594 6.69573C2.0346 6.6475 2.47609 6.42215 2.76645 5.8818C3.36855 4.76155 3.96768 3.76102 4.5633 2.92191C4.77998 2.24178 4.95874 1.72123 5.13426 1.32495C3.9471 2.45496 2.75534 4.33389 1.65594 6.69519" fill="white"/>
<path opacity="0.64" d="M1.0175 5.16028C0.765892 5.64539 0.490704 6.16218 0.184357 6.70848H0.72093C0.791894 6.16595 0.892652 5.64862 1.0175 5.16054" fill="white"/>
<path d="M4.72061 0.154073C4.71626 0.154073 4.71302 0.15622 4.70923 0.15622C4.70273 0.158366 4.69595 0.158366 4.68919 0.159063C4.68516 0.159063 4.68134 0.159063 4.67727 0.161209C4.66995 0.163356 4.66319 0.16357 4.65614 0.164912C4.65287 0.164912 4.64964 0.164912 4.64693 0.167058C4.63148 0.169633 4.61633 0.172477 4.60116 0.175074H4.59601C4.58816 0.17722 4.5811 0.178347 4.5738 0.17942C4.56999 0.181566 4.56621 0.181566 4.56268 0.182424C4.55538 0.18457 4.54806 0.185483 4.54102 0.18677C4.53721 0.188916 4.53426 0.188916 4.53072 0.189131C4.50553 0.195199 4.48061 0.201702 4.45542 0.208634C4.45274 0.208634 4.45001 0.210781 4.44676 0.21121C4.43918 0.213356 4.43185 0.215556 4.42401 0.217927C4.42073 0.220073 4.41696 0.220073 4.41371 0.220932C4.40613 0.223078 4.39854 0.225278 4.39123 0.227649C4.38828 0.227649 4.38582 0.229796 4.38311 0.229796C4.36577 0.236293 4.34871 0.242796 4.33083 0.248215C4.32325 0.250576 4.31512 0.253629 4.307 0.256446C4.30372 0.258592 4.30076 0.259075 4.29699 0.260577C4.2894 0.262938 4.28182 0.265996 4.27477 0.268813C4.27209 0.270959 4.26936 0.271174 4.26747 0.272301C3.09142 0.736544 2.42512 2.4516 1.01885 5.1615C0.893981 5.64959 0.792952 6.16691 0.72226 6.70943H0.797557C1.00964 6.70943 1.06949 6.70728 1.31353 6.70728H1.32599H1.36229H1.37475H1.37828H1.39074H1.39778H1.40266H1.41241H1.44274H1.47308H1.49854H1.5053H1.54999C1.56678 6.70514 1.58412 6.70514 1.60172 6.7038H1.60498C1.6123 6.7038 1.6196 6.70165 1.62664 6.70165H1.63178C1.63962 6.70165 1.64857 6.6995 1.65724 6.69859C2.75664 4.33728 3.94839 2.45836 5.13555 1.32835C5.2661 1.03258 5.39476 0.806686 5.5356 0.635786C5.45326 0.49657 5.36307 0.380103 5.26231 0.295576C5.26231 0.295576 5.25957 0.295576 5.25936 0.29343C5.25366 0.291069 5.24827 0.288225 5.24257 0.285414C5.23687 0.282355 5.232 0.279995 5.22606 0.276963C5.22091 0.274817 5.21495 0.271973 5.20981 0.269162C5.20277 0.267016 5.19707 0.263957 5.19085 0.26114C5.1857 0.258994 5.1811 0.256794 5.17594 0.254643C5.16536 0.250512 5.15482 0.246192 5.14479 0.241642C5.14018 0.239496 5.13586 0.23837 5.13151 0.236653C5.12421 0.234024 5.1158 0.230584 5.10822 0.227333C5.10441 0.225187 5.10009 0.224757 5.09576 0.223202C5.08466 0.219499 5.07382 0.21562 5.06352 0.212149H5.06084C5.04838 0.208017 5.03619 0.205002 5.02346 0.201531C5.02051 0.199384 5.01804 0.199384 5.01507 0.198955C5.00396 0.195897 4.99421 0.192887 4.98365 0.19007C4.98097 0.19007 4.9785 0.187924 4.97635 0.187924C4.95089 0.181206 4.92462 0.175793 4.89807 0.170808C4.89534 0.170808 4.89266 0.168662 4.88995 0.168662C4.87858 0.166516 4.86747 0.164531 4.8561 0.163243C4.85336 0.161097 4.85175 0.161097 4.84933 0.161097C4.83579 0.158951 4.82252 0.157395 4.80924 0.155892H4.80221C4.79137 0.153746 4.78136 0.153532 4.77133 0.152405C4.75425 0.154551 4.73801 0.155463 4.72203 0.156965" fill="white"/>
<path opacity="0.64" d="M12.7238 1.76157C12.4532 2.6283 12.2341 3.34336 12.0434 3.93166C12.7858 2.90999 13.5171 1.62478 14.2135 0.141602C13.4012 0.396722 12.9679 0.980705 12.7238 1.76157Z" fill="white"/>
<path opacity="0.64" d="M12.067 6.32599C12.0291 6.34527 11.9912 6.36363 11.9538 6.38016C13.398 5.73606 15.1207 3.18137 15.9454 0.000732422H15.7783C13.8834 3.38559 13.274 5.65156 12.067 6.32599Z" fill="white"/>
<path opacity="0.64" d="M11.1239 6.04159C11.4381 5.65807 11.6941 5.00613 12.0435 3.93164C11.6405 4.48527 11.2347 4.96117 10.8287 5.34929C10.8287 5.35144 10.8287 5.35144 10.8266 5.35278C10.9152 5.61822 11.0124 5.85249 11.1232 6.04155" fill="white"/>
<path opacity="0.64" d="M11.1241 6.04163C11.0171 6.17218 10.9039 6.27159 10.7779 6.34527C10.7503 6.3613 10.7224 6.37641 10.6939 6.39023C10.8269 6.462 10.9721 6.50995 11.1346 6.52917C11.1584 6.53153 11.182 6.53373 11.2067 6.53545H11.211C11.2221 6.53545 11.2338 6.53545 11.2457 6.53759H11.2505H11.2859H11.3241H11.3361H11.3632C11.3675 6.53759 11.372 6.5376 11.3764 6.53545C11.3848 6.53545 11.3937 6.53545 11.4024 6.5333H11.4054H11.4152C11.4241 6.5333 11.4338 6.53116 11.4433 6.53024H11.4455C11.4483 6.53024 11.4513 6.5281 11.4542 6.5281C11.4641 6.52595 11.4745 6.52504 11.4842 6.52354H11.4931C11.5042 6.52139 11.5156 6.52005 11.527 6.5179H11.5291H11.5324C11.5551 6.51356 11.5773 6.50924 11.5998 6.50361C11.4135 6.43535 11.2575 6.27446 11.1231 6.04532" fill="white"/>
<path opacity="0.88" d="M8.46143 6.5376C8.59659 6.5376 8.7331 6.52438 8.87015 6.49805C8.99692 6.47504 9.12394 6.43981 9.25124 6.39539C9.35715 6.44713 9.4682 6.48559 9.58575 6.50943C9.67702 6.52806 9.77182 6.5376 9.87123 6.5376H8.46143Z" fill="white"/>
<path opacity="0.88" d="M9.87126 6.5376C10.2049 6.5376 10.4693 6.49806 10.6938 6.39026C10.8268 6.46203 10.972 6.50998 11.1345 6.52922C11.1584 6.53158 11.1819 6.53378 11.2066 6.5355H11.2109C11.222 6.5355 11.2337 6.5355 11.2456 6.53765H11.2506H11.2861H9.8703L9.87126 6.5376Z" fill="white"/>
<path opacity="0.88" d="M11.287 6.53758H11.3255H11.3374H11.3642C11.3688 6.53758 11.3731 6.53758 11.3774 6.53543C11.3859 6.53543 11.3947 6.53543 11.4037 6.53328H11.4065H11.4165C11.4254 6.53328 11.4351 6.53114 11.4444 6.53028H11.4468C11.4496 6.53028 11.4524 6.52813 11.4552 6.52813C11.4652 6.52599 11.4756 6.52513 11.4853 6.52357C11.4886 6.52357 11.4911 6.52357 11.4946 6.52143C11.5056 6.51928 11.5171 6.51815 11.5285 6.51601H11.5306H11.5339C11.5566 6.51167 11.5789 6.50734 11.6013 6.50171C11.6666 6.52581 11.7346 6.53801 11.808 6.53801L11.2874 6.54015L11.287 6.53758Z" fill="white"/>
<path opacity="0.88" d="M10.8275 5.35285V5.35071C10.6788 5.4929 10.5304 5.62319 10.3822 5.741C10.3048 5.80249 10.2276 5.86072 10.1496 5.91571C10.2148 5.99372 10.2812 6.06685 10.3511 6.13348C10.4573 6.23638 10.5707 6.32308 10.6945 6.38997C10.7227 6.3761 10.7509 6.36097 10.7782 6.34501C10.9044 6.27133 11.0176 6.17194 11.1246 6.04139C11.0139 5.85233 10.9166 5.61803 10.828 5.3526" fill="white"/>
<path d="M15.249 0.000732422H14.5464H14.4765H14.4105H14.4079C14.3624 0.00287859 14.3182 0.00443456 14.2746 0.00723532C14.254 0.0513981 14.2329 0.0955556 14.2126 0.139976C13.5162 1.62315 12.7849 2.90837 12.0425 3.93003C11.6934 5.0045 11.4371 5.65646 11.123 6.03999C11.2573 6.26913 11.4136 6.43027 11.5994 6.49853C11.6048 6.49639 11.6091 6.49639 11.614 6.49526H11.617C11.6203 6.49526 11.6238 6.49311 11.6273 6.49311C11.6349 6.49097 11.643 6.48963 11.6506 6.48727C11.6555 6.48512 11.6595 6.48491 11.6644 6.48335C11.6715 6.4812 11.6788 6.47965 11.6853 6.47793C11.6896 6.47578 11.6939 6.47509 11.6983 6.47423C11.7091 6.47074 11.7189 6.46816 11.7292 6.46491C11.734 6.46276 11.7392 6.46099 11.7446 6.4597C11.7506 6.45756 11.7565 6.456 11.7619 6.45342C11.7682 6.45128 11.7744 6.45015 11.7798 6.44779C11.7847 6.44564 11.7898 6.4443 11.7944 6.44237C11.8066 6.43802 11.8186 6.43435 11.8307 6.42958C11.834 6.42958 11.8372 6.42658 11.8408 6.42588C11.8481 6.42282 11.8557 6.42046 11.863 6.41721C11.8657 6.41506 11.8689 6.41485 11.8724 6.41372C11.8979 6.4031 11.9242 6.39227 11.9505 6.38042H11.9532C11.9906 6.36395 12.0285 6.34547 12.0661 6.32625C13.2733 5.65182 13.8828 3.38585 15.7777 0.000995328H15.2484L15.249 0.000732422Z" fill="url(#paint1_linear)"/>
<path opacity="0.4" d="M4.76999 0.149467C4.77299 0.149467 4.77569 0.149467 4.77865 0.151613C4.78596 0.151613 4.79328 0.151613 4.80059 0.153974H4.80792C4.82118 0.15612 4.83446 0.157247 4.848 0.159178C4.85047 0.159178 4.85262 0.159178 4.85476 0.161325C4.86586 0.163471 4.87724 0.165241 4.88862 0.166958C4.89109 0.166958 4.89432 0.169104 4.89703 0.169104C4.92303 0.174309 4.94958 0.179723 4.97503 0.18644C4.97745 0.18644 4.97992 0.188586 4.98208 0.188586C4.99291 0.191162 5.00266 0.194435 5.01349 0.197466C5.01677 0.197466 5.01917 0.199612 5.02216 0.200095C5.0349 0.203368 5.04681 0.206598 5.05927 0.210713C5.05981 0.210713 5.06056 0.210713 5.06201 0.212859C5.07256 0.216079 5.08339 0.220226 5.09451 0.223907C5.09885 0.226053 5.10289 0.226965 5.10696 0.228038C5.11455 0.231311 5.12296 0.234536 5.13026 0.237573C5.13461 0.237573 5.13893 0.240577 5.14352 0.242133C5.15353 0.246694 5.16411 0.250798 5.1744 0.255134C5.17982 0.25728 5.18441 0.259694 5.18957 0.261631C5.19553 0.264689 5.20174 0.267485 5.20825 0.269652C5.21366 0.272228 5.21962 0.275066 5.22476 0.277448C5.23046 0.280507 5.23585 0.282867 5.24129 0.285899C5.37563 0.35199 5.49941 0.440026 5.61399 0.546744C5.65624 0.502324 5.70039 0.462496 5.74616 0.426747C5.49562 0.249065 5.21177 0.147766 4.8843 0.147766C4.84638 0.147766 4.80846 0.149912 4.77001 0.152756" fill="white"/>
<path opacity="0.4" d="M5.61407 0.543643C5.68423 0.608908 5.7514 0.681781 5.81505 0.760331C5.87653 0.717536 5.93748 0.676362 5.99869 0.637902C5.91851 0.557727 5.83401 0.48568 5.74598 0.423645C5.70021 0.459137 5.65633 0.499222 5.61407 0.543643Z" fill="#FFF9F3"/>
<path opacity="0.64" d="M4.7699 0.149418C4.80836 0.146168 4.84628 0.144814 4.8842 0.144814C5.21166 0.144814 5.49551 0.246113 5.74605 0.423523C6.01041 0.214965 6.33002 0.142105 6.77395 0.142105H4.62418C4.67374 0.142105 4.72223 0.145085 4.7699 0.149418Z" fill="white"/>
<path opacity="0.64" d="M6.77393 0.142093C6.32999 0.142093 6.01039 0.214953 5.74603 0.423511C5.83379 0.485536 5.9183 0.557583 5.99847 0.637756C6.36656 0.403738 6.73113 0.248809 7.09055 0.181096C7.22761 0.155365 7.36439 0.142093 7.49927 0.142093H6.77393Z" fill="white"/>
<path opacity="0.4" d="M12.0434 3.93219C12.2344 3.34335 12.453 2.62858 12.7241 1.76156C12.9684 0.980416 13.401 0.396454 14.2132 0.141591C14.2347 0.0979698 14.255 0.0530075 14.2758 0.0088501C12.9516 0.0882208 12.3327 0.761823 12.0212 1.75939C11.4765 3.50098 11.1466 4.62991 10.8289 5.3493C11.2347 4.96143 11.6404 4.48527 12.0434 3.93219Z" fill="white"/>
<defs>
<linearGradient id="paint0_linear" x1="8.59577" y1="6.06402" x2="6.69704" y2="1.05496" gradientUnits="userSpaceOnUse">
<stop stop-color="white"/>
<stop offset="1" stop-color="white"/>
</linearGradient>
<linearGradient id="paint1_linear" x1="13.9067" y1="6.14556" x2="12.0668" y2="0.65865" gradientUnits="userSpaceOnUse">
<stop stop-color="white"/>
<stop offset="1" stop-color="white"/>
</linearGradient>
</defs>
</svg>
